# 3ds Max Wavefront OBJ Exporter v0.99 - (c)2007 guruware
# File Created: 26.01.2023 09:19:05

mtllib Plank_07.mtl

#
# object Object007
#

v  39.5125 -1.5547 58.9148
v  39.5125 1.2571 58.9148
v  39.2236 -1.5547 58.4422
v  39.2236 1.2571 58.4422
v  49.2044 -2.3277 56.4235
v  49.2044 -1.5547 56.8960
v  39.5125 -2.3277 58.4422
v  39.2236 -0.7716 -32.4334
v  39.2236 -1.5548 -57.4815
v  39.5124 -1.5445 -32.4334
v  39.5124 -2.3277 -57.4815
v  49.4933 -1.5547 56.4235
v  49.4933 1.2571 56.4235
v  49.2044 1.2571 56.8960
v  49.7112 -1.5445 -29.7309
v  49.2044 -0.7469 -54.3503
v  50.0000 -0.7716 -29.7309
v  49.4933 0.0261 -54.3503
v  39.2236 1.2570 -57.4815
v  39.5124 -1.5548 -57.9540
v  39.5124 1.2570 -57.9540
v  49.2044 0.0261 -54.8228
v  49.2044 1.2570 -54.8228
v  49.4933 1.2570 -54.3503
v  39.2236 1.2570 -32.4334
v  39.5124 2.0300 -57.4815
v  39.5124 2.0300 -32.4334
v  49.2044 2.0300 -54.3503
v  49.7111 2.8132 -29.7309
v  50.0000 2.0402 -29.7309
v  39.5125 2.0300 58.4422
v  49.2044 2.0300 56.4235
v  49.7111 -2.3277 -17.5941
v  50.0000 -1.5547 -17.5941
v  50.0000 1.2570 -17.5941
v  49.7111 2.0300 -17.5941
v  40.2557 2.0300 -19.7190
v  39.9668 1.2570 -19.7190
v  39.9668 -1.5547 -19.7190
v  40.2557 -2.3277 -19.7190
# 40 vertices

vn 0.1583 -0.1190 0.9802
vn 0.1583 0.1190 0.9802
vn -0.9968 -0.0801 -0.0038
vn -0.9968 0.0801 -0.0038
vn 0.0687 -0.9976 0.0053
vn 0.2342 -0.1329 0.9631
vn -0.0900 -0.9959 0.0072
vn -0.9960 -0.0881 0.0126
vn -0.9958 -0.0912 -0.0084
vn -0.0378 -0.9992 -0.0103
vn -0.0011 -0.9993 -0.0385
vn 0.9968 -0.0802 0.0065
vn 0.9968 0.0802 0.0065
vn 0.2342 0.1329 0.9631
vn 0.1041 -0.9944 -0.0166
vn 0.1469 -0.9888 -0.0256
vn 0.9960 -0.0883 -0.0099
vn 0.9945 -0.1006 -0.0298
vn -0.9960 0.0892 -0.0111
vn 0.2693 -0.1597 -0.9497
vn 0.2480 0.1437 -0.9580
vn 0.3419 -0.1534 -0.9271
vn 0.3196 0.1702 -0.9321
vn 0.9945 0.1007 -0.0298
vn -0.9959 0.0899 0.0126
vn -0.1125 0.9921 -0.0549
vn -0.1163 0.9932 -0.0011
vn 0.0351 0.9987 -0.0381
vn 0.0347 0.9994 0.0021
vn 0.9959 0.0902 -0.0074
vn -0.0900 0.9959 0.0072
vn 0.0687 0.9976 0.0053
vn 0.0721 -0.9974 -0.0038
vn 0.9967 -0.0806 0.0029
vn 0.9968 0.0800 0.0036
vn 0.0641 0.9979 0.0023
vn -0.0961 0.9954 0.0032
vn -0.9966 0.0823 -0.0006
vn -0.9966 -0.0827 -0.0010
vn -0.0832 -0.9965 -0.0063
# 40 vertex normals

vt 0.5437 0.6084 0.0000
vt 0.5437 0.5957 0.0000
vt 0.5466 0.6089 0.0000
vt 0.5465 0.5952 0.0000
vt 0.4891 0.6128 0.0000
vt 0.4897 0.6084 0.0000
vt 0.5433 0.6128 0.0000
vt 0.9177 0.1320 0.0000
vt 0.9165 0.0000 0.0000
vt 0.9141 0.1320 0.0000
vt 0.9129 0.0000 0.0000
vt 0.4868 0.6088 0.0000
vt 0.4867 0.5954 0.0000
vt 0.4897 0.5957 0.0000
vt 0.9995 0.1472 0.0000
vt 0.9931 0.0173 0.0000
vt 0.9959 0.1472 0.0000
vt 0.9896 0.0174 0.0000
vt 0.3419 0.5971 0.0000
vt 0.3420 0.5833 0.0000
vt 0.3447 0.5966 0.0000
vt 0.3449 0.5839 0.0000
vt 0.4003 0.5901 0.0000
vt 0.3455 0.6008 0.0000
vt 0.4013 0.5944 0.0000
vt 0.4004 0.5846 0.0000
vt 0.4033 0.5905 0.0000
vt 0.4033 0.5843 0.0000
vt 0.9284 0.0002 0.0000
vt 0.9262 0.1320 0.0000
vt 0.9320 0.0003 0.0000
vt 0.9297 0.1320 0.0000
vt 0.4013 0.5803 0.0000
vt 0.3457 0.5796 0.0000
vt 0.9806 0.1472 0.0000
vt 0.9841 0.1472 0.0000
vt 0.9808 0.0176 0.0000
vt 0.9844 0.0175 0.0000
vt 0.5433 0.5914 0.0000
vt 0.4891 0.5914 0.0000
vt 0.8636 0.0172 0.0000
vt 0.8631 0.1472 0.0000
vt 0.9993 0.6004 0.0000
vt 0.9988 0.2107 0.0000
vt 0.9958 0.6004 0.0000
vt 0.9952 0.2106 0.0000
vt 0.9839 0.6004 0.0000
vt 0.9833 0.2106 0.0000
vt 0.9798 0.2105 0.0000
vt 0.9803 0.6004 0.0000
vt 0.9314 0.6114 0.0000
vt 0.9317 0.1995 0.0000
vt 0.9281 0.1995 0.0000
vt 0.9279 0.6115 0.0000
vt 0.9160 0.6114 0.0000
vt 0.9162 0.1995 0.0000
vt 0.9124 0.6114 0.0000
vt 0.9126 0.1995 0.0000
vt 0.8635 0.6003 0.0000
vt 0.8647 0.2105 0.0000
# 60 texture coords

o Object007
g Object007
usemtl default
s 15
f 1/1/1 2/2/2 3/3/3 
f 3/3/3 2/2/2 4/4/4 
f 5/5/5 6/6/6 7/7/7 
f 7/7/7 6/6/6 1/1/1 
f 8/8/8 9/9/9 10/10/10 
f 10/10/10 9/9/9 11/11/11 
f 12/12/12 13/13/13 6/6/6 
f 6/6/6 13/13/13 14/14/14 
f 15/15/15 16/16/16 17/17/17 
f 17/17/17 16/16/16 18/18/18 
f 9/19/9 19/20/19 20/21/20 
f 20/21/20 19/20/19 21/22/21 
f 20/21/20 22/23/22 11/24/11 
f 11/24/11 22/23/22 16/25/16 
f 22/23/22 23/26/23 18/27/18 
f 18/27/18 23/26/23 24/28/24 
f 19/29/19 25/30/25 26/31/26 
f 26/31/26 25/30/25 27/32/27 
f 28/33/28 23/26/23 26/34/26 
f 26/34/26 23/26/23 21/22/21 
f 29/35/29 30/36/30 28/37/28 
f 28/37/28 30/36/30 24/38/24 
f 2/2/2 14/14/14 31/39/31 
f 31/39/31 14/14/14 32/40/32 
f 11/11/11 16/41/16 10/10/10 
f 10/10/10 16/41/16 15/42/15 
f 20/21/20 21/22/21 22/23/22 
f 22/23/22 21/22/21 23/26/23 
f 26/31/26 27/32/27 28/37/28 
f 28/37/28 27/32/27 29/35/29 
f 2/2/2 1/1/1 14/14/14 
f 14/14/14 1/1/1 6/6/6 
f 17/17/17 18/18/18 30/36/30 
f 30/36/30 18/18/18 24/38/24 
f 25/30/25 19/29/19 8/8/8 
f 8/8/8 19/29/19 9/9/9 
f 1/1/1 3/3/3 7/7/7 
f 12/12/12 6/6/6 5/5/5 
f 9/19/9 20/21/20 11/24/11 
f 22/23/22 18/27/18 16/25/16 
f 19/20/19 26/34/26 21/22/21 
f 28/33/28 24/28/24 23/26/23 
f 4/4/4 2/2/2 31/39/31 
f 14/14/14 13/13/13 32/40/32 
f 5/43/5 33/44/33 12/45/12 
f 12/45/12 33/44/33 34/46/34 
f 12/45/12 34/46/34 13/47/13 
f 13/47/13 34/46/34 35/48/35 
f 36/49/36 32/50/32 35/48/35 
f 35/48/35 32/50/32 13/47/13 
f 31/51/31 32/50/32 37/52/37 
f 37/52/37 32/50/32 36/49/36 
f 38/53/38 4/54/4 37/52/37 
f 37/52/37 4/54/4 31/51/31 
f 4/54/4 38/53/38 3/55/3 
f 3/55/3 38/53/38 39/56/39 
f 3/55/3 39/56/39 7/57/7 
f 7/57/7 39/56/39 40/58/40 
f 7/57/7 40/58/40 5/59/5 
f 5/59/5 40/58/40 33/60/33 
f 33/44/33 15/15/15 34/46/34 
f 34/46/34 15/15/15 17/17/17 
f 34/46/34 17/17/17 35/48/35 
f 35/48/35 17/17/17 30/36/30 
f 29/35/29 36/49/36 30/36/30 
f 30/36/30 36/49/36 35/48/35 
f 27/32/27 37/52/37 29/35/29 
f 29/35/29 37/52/37 36/49/36 
f 25/30/25 38/53/38 27/32/27 
f 27/32/27 38/53/38 37/52/37 
f 25/30/25 8/8/8 38/53/38 
f 38/53/38 8/8/8 39/56/39 
f 8/8/8 10/10/10 39/56/39 
f 39/56/39 10/10/10 40/58/40 
f 10/10/10 15/42/15 40/58/40 
f 40/58/40 15/42/15 33/60/33 
# 0 polygons - 76 triangles

