<?xml version="1.0" standalone="no"?>
<!DOCTYPE svg PUBLIC "-//W3C//DTD SVG 20010904//EN"
 "http://www.w3.org/TR/2001/REC-SVG-20010904/DTD/svg10.dtd">
<svg version="1.0" xmlns="http://www.w3.org/2000/svg"
 width="586.000000pt" height="329.000000pt" viewBox="0 0 586.000000 329.000000"
 preserveAspectRatio="xMidYMid meet">

<g transform="translate(0.000000,329.000000) scale(0.100000,-0.100000)"
fill="#000000" stroke="none">
<path d="M140 2585 l0 -285 50 0 50 0 0 205 c0 113 3 205 6 205 3 0 101 -92
216 -205 209 -204 210 -205 254 -205 l44 0 0 285 0 285 -55 0 -55 0 0 -206 0
-206 -212 206 c-209 202 -214 206 -255 206 l-43 0 0 -285z"/>
<path d="M920 2585 l0 -285 55 0 55 0 0 285 0 285 -55 0 -55 0 0 -285z"/>
<path d="M1200 2586 l0 -286 50 0 50 0 0 205 c0 113 3 205 6 205 4 0 101 -92
215 -205 l209 -205 45 0 45 0 0 285 0 285 -55 0 -55 0 0 -206 0 -206 -211 204
c-203 196 -212 203 -255 206 l-44 3 0 -285z"/>
<path d="M1940 2820 l0 -50 125 0 125 0 0 -235 0 -235 55 0 55 0 0 235 0 235
130 0 130 0 0 50 0 50 -310 0 -310 0 0 -50z"/>
<path d="M2680 2585 l0 -285 275 0 275 0 0 50 0 50 -225 0 -225 0 0 70 0 70
175 0 175 0 0 50 0 50 -175 0 -175 0 0 65 0 65 225 0 225 0 0 50 0 50 -275 0
-275 0 0 -285z"/>
<path d="M3390 2585 l0 -285 55 0 55 0 2 205 3 205 212 -205 c205 -199 213
-205 252 -205 l41 0 0 285 0 285 -50 0 -50 0 -2 -207 -3 -208 -212 208 -212
207 -45 0 -46 0 0 -285z"/>
<path d="M4170 2586 l0 -286 243 0 c214 0 247 3 283 19 91 41 139 143 132 285
-4 111 -41 187 -112 231 l-49 30 -249 3 -248 3 0 -285z m490 167 c92 -54 104
-256 19 -327 -30 -26 -31 -26 -215 -26 l-184 0 0 185 0 185 176 0 c146 0 181
-3 204 -17z"/>
<path d="M5010 2852 c-62 -30 -70 -62 -70 -270 0 -293 -14 -282 360 -282 l272
0 34 34 34 34 0 206 c0 309 16 296 -347 296 -216 0 -253 -2 -283 -18z m528
-270 l2 -182 -247 2 -248 3 -3 160 c-1 88 0 170 3 183 l5 22 243 -2 242 -3 3
-183z"/>
<path d="M814 1550 c-67 -4 -167 -13 -223 -20 l-101 -13 0 -94 c0 -51 1 -93 3
-93 1 0 54 11 117 25 333 72 646 50 748 -51 62 -61 33 -139 -66 -182 -75 -32
-203 -51 -402 -58 l-180 -7 0 -77 0 -77 185 -7 c308 -11 439 -38 507 -105 59
-59 62 -111 12 -171 -34 -39 -105 -76 -191 -97 -149 -36 -443 -16 -681 46
l-73 19 3 -101 3 -102 120 -17 c150 -22 462 -35 621 -27 462 26 733 226 618
457 -44 89 -142 157 -275 191 l-69 17 48 13 c118 30 218 95 251 164 69 143
-34 265 -276 326 -43 11 -114 25 -158 31 -107 15 -392 20 -541 10z"/>
<path d="M1980 944 l0 -606 478 5 c381 4 493 8 556 21 203 40 315 94 427 205
115 114 159 219 159 376 0 157 -43 258 -160 376 -60 61 -93 85 -170 123 -181
88 -326 106 -880 106 l-410 0 0 -606z m835 422 c108 -24 203 -76 268 -146 78
-83 100 -146 100 -275 0 -80 -4 -112 -22 -158 -31 -78 -112 -164 -193 -205
-110 -55 -162 -64 -390 -69 l-208 -5 0 434 c0 239 3 438 8 443 12 12 360 -3
437 -19z"/>
<path d="M4120 1545 c-8 -2 -49 -9 -90 -15 -236 -39 -380 -148 -380 -290 1
-153 102 -234 468 -374 206 -79 257 -104 297 -145 22 -24 30 -41 30 -70 0 -87
-86 -141 -240 -149 -140 -7 -349 18 -527 63 l-28 7 0 -100 0 -100 103 -13 c65
-9 199 -14 372 -14 243 1 280 3 364 23 169 39 289 111 330 195 15 30 21 62 21
108 -1 165 -103 245 -495 389 -266 98 -335 141 -335 210 0 110 244 154 525 95
66 -14 135 -28 153 -32 l33 -6 -3 94 -3 94 -65 13 c-59 12 -493 26 -530 17z"/>
<path d="M4905 510 c3 -5 13 -10 21 -10 10 0 14 -14 14 -55 0 -42 3 -55 15
-55 12 0 15 13 15 55 0 41 4 55 14 55 8 0 18 5 21 10 4 6 -15 10 -50 10 -35 0
-54 -4 -50 -10z"/>
<path d="M5026 498 c-9 -36 -7 -108 4 -108 6 0 10 11 10 24 0 13 3 32 7 42 5
14 9 9 17 -21 15 -53 31 -54 49 -3 l15 43 7 -42 c11 -65 26 -51 23 19 -2 50
-6 63 -20 66 -12 2 -21 -6 -28 -25 -6 -15 -13 -35 -16 -43 -4 -10 -10 -1 -18
25 -13 45 -40 58 -50 23z"/>
</g>
</svg>
