<?xml version="1.0" standalone="no"?>
<!DOCTYPE svg PUBLIC "-//W3C//DTD SVG 20010904//EN"
 "http://www.w3.org/TR/2001/REC-SVG-20010904/DTD/svg10.dtd">
<svg version="1.0" xmlns="http://www.w3.org/2000/svg"
 width="2560.000000pt" height="2500.000000pt" viewBox="0 0 2560.000000 2500.000000"
 preserveAspectRatio="xMidYMid meet">

<g transform="translate(0.000000,2500.000000) scale(0.100000,-0.100000)"
fill="#000000" stroke="none">
<path d="M22670 14233 c-694 -38 -1176 -193 -1431 -460 -125 -132 -179 -260
-179 -430 0 -114 13 -178 55 -268 106 -230 342 -405 820 -610 61 -26 256 -102
435 -170 646 -243 807 -324 904 -451 46 -59 59 -111 54 -199 -13 -198 -189
-333 -503 -386 -103 -18 -530 -18 -720 -1 -373 35 -813 116 -989 182 -28 11
-54 20 -58 20 -5 0 -8 -128 -8 -285 l0 -285 23 -5 c12 -3 101 -16 197 -30 421
-59 778 -80 1270 -72 466 7 726 36 1026 112 320 82 534 191 694 354 140 142
200 286 200 481 0 336 -191 568 -655 794 -184 90 -362 162 -745 301 -535 194
-706 269 -830 361 -100 75 -140 145 -140 241 0 130 98 228 294 294 139 46 275
63 511 63 305 -1 431 -19 1028 -150 92 -20 170 -34 172 -32 3 2 1 123 -3 268
l-7 264 -157 27 c-216 38 -397 58 -633 69 -184 9 -493 11 -625 3z"/>
<path d="M16310 12504 l0 -1726 1173 5 c974 4 1200 7 1337 21 625 61 998 165
1325 371 420 264 656 586 751 1025 27 122 27 487 1 610 -106 492 -401 856
-907 1118 -251 131 -546 210 -974 262 -302 36 -446 40 -1587 40 l-1119 0 0
-1726z m1931 1256 c306 -16 553 -66 760 -153 193 -81 314 -163 445 -299 92
-97 141 -167 196 -284 122 -260 140 -639 44 -920 -161 -474 -597 -757 -1275
-829 -96 -11 -260 -15 -558 -15 l-423 0 0 1255 0 1255 318 0 c174 0 396 -5
493 -10z"/>
<path d="M240 13410 l0 -810 150 0 150 0 0 596 c0 328 4 594 9 592 4 -1 281
-268 615 -593 l608 -590 119 -3 119 -3 0 811 0 810 -145 0 -145 0 -2 -590 -3
-591 -608 591 -608 590 -130 0 -129 0 0 -810z"/>
<path d="M2490 13410 l0 -810 150 0 150 0 0 810 0 810 -150 0 -150 0 0 -810z"/>
<path d="M3260 13410 l0 -810 150 0 150 0 2 597 3 597 614 -597 615 -597 118
0 118 0 0 810 0 810 -145 0 -145 0 -2 -592 -3 -592 -610 592 -610 592 -127 0
-128 0 0 -810z"/>
<path d="M5370 14080 l0 -140 365 0 365 0 0 -670 0 -670 155 0 155 0 0 670 0
670 363 2 362 3 3 138 3 137 -886 0 -885 0 0 -140z"/>
<path d="M7480 13410 l0 -810 790 0 790 0 0 135 0 135 -642 2 -643 3 0 210 0
210 498 3 497 2 0 140 0 140 -500 0 -500 0 0 180 0 180 645 0 645 0 0 140 0
140 -790 0 -790 0 0 -810z"/>
<path d="M9510 13410 l0 -810 150 0 150 0 0 596 c0 336 4 594 9 592 5 -1 282
-268 616 -593 l607 -590 119 -3 119 -3 0 811 0 810 -145 0 -145 0 -2 -590 -3
-591 -608 591 -608 590 -129 0 -130 0 0 -810z"/>
<path d="M11740 13410 l0 -810 653 0 c621 0 658 1 732 20 294 75 472 341 492
735 9 183 -19 344 -87 490 -82 177 -194 281 -367 343 l-78 27 -672 3 -673 3 0
-811z m1372 497 c100 -49 176 -154 215 -299 24 -88 24 -308 0 -398 -29 -107
-71 -182 -137 -243 -101 -94 -86 -92 -660 -92 l-495 0 -3 533 -2 533 512 -3
513 -3 57 -28z"/>
<path d="M14183 14206 c-94 -30 -171 -93 -212 -174 -39 -76 -42 -136 -39 -662
l3 -505 29 -63 c37 -79 114 -152 192 -182 55 -20 66 -20 793 -18 l736 3 46 23
c71 35 122 84 160 154 l34 63 0 560 0 560 -26 55 c-33 70 -95 132 -167 167
l-57 28 -725 2 c-581 2 -733 -1 -767 -11z m1443 -287 c18 -20 19 -43 19 -510
l0 -488 -23 -23 -23 -23 -670 0 -671 0 -19 24 c-18 22 -19 46 -19 512 0 476 1
490 20 509 20 20 33 20 693 20 672 0 674 0 693 -21z"/>
<path d="M24540 11325 c0 -24 2 -25 65 -25 l65 0 0 -195 0 -195 30 0 30 0 0
195 0 195 65 0 c63 0 65 1 65 25 l0 25 -160 0 -160 0 0 -25z"/>
<path d="M24930 11343 c0 -5 -7 -91 -15 -193 -20 -250 -20 -240 9 -240 22 0
24 5 30 63 3 34 8 118 12 186 l7 123 59 -181 c57 -175 75 -208 99 -184 6 6 39
90 73 189 l64 178 6 -130 c12 -228 14 -244 42 -244 29 0 28 -4 11 260 l-12
175 -33 3 c-30 3 -34 0 -51 -40 -10 -24 -38 -100 -61 -168 -24 -69 -46 -129
-50 -133 -4 -4 -14 18 -23 50 -8 32 -34 111 -57 176 l-42 117 -34 0 c-19 0
-34 -3 -34 -7z"/>
</g>
</svg>
