<svg id="svg" version="1.1" xmlns="http://www.w3.org/2000/svg" xmlns:xlink="http://www.w3.org/1999/xlink" width="400" height="400" viewBox="0, 0, 400,400"><g id="svgg"><path id="path0" d="M36.657 0.284 C 31.381 1.642,24.564 8.995,22.560 15.490 L 21.600 18.600 21.600 149.606 C 21.600 294.045,21.389 280.653,23.745 286.068 C 26.295 291.929,32.727 297.264,39.400 299.054 C 41.032 299.492,52.942 299.591,104.100 299.595 L 166.800 299.600 166.800 324.500 L 166.799 349.400 161.500 350.335 C 154.659 351.541,146.485 353.665,143.308 355.062 C 142.598 355.374,141.278 355.890,140.376 356.209 C 116.662 364.575,117.514 383.804,142.000 392.891 C 149.286 395.595,154.855 396.963,167.200 399.080 C 173.638 400.184,226.491 400.170,232.800 399.063 C 235.110 398.657,237.900 398.171,239.000 397.983 C 242.976 397.301,245.057 396.852,248.200 395.996 C 249.960 395.516,251.940 395.029,252.600 394.912 C 253.260 394.795,253.980 394.566,254.200 394.402 C 254.420 394.238,255.320 393.885,256.200 393.618 C 259.390 392.647,265.996 389.478,268.572 387.681 C 279.215 380.257,279.817 369.298,269.994 361.827 C 264.094 357.340,248.570 351.508,240.009 350.562 C 239.014 350.452,237.840 350.245,237.400 350.101 C 236.239 349.721,236.137 349.705,234.600 349.650 L 233.200 349.600 233.200 324.600 L 233.200 299.600 296.200 299.550 C 364.548 299.496,359.804 299.529,360.233 299.100 C 360.398 298.935,360.895 298.800,361.337 298.800 C 366.631 298.800,375.063 290.504,377.563 282.834 L 378.400 280.268 378.400 149.032 L 378.400 17.797 377.436 15.140 C 374.971 8.344,370.911 3.820,364.660 0.905 L 362.721 -0.000 200.060 0.046 C 110.597 0.072,37.066 0.179,36.657 0.284 M352.154 24.035 C 354.581 25.945,354.400 15.829,354.399 149.280 C 354.397 286.021,354.679 272.751,351.737 274.678 C 350.680 275.371,344.515 275.400,199.947 275.400 L 49.259 275.400 48.129 274.572 C 45.360 272.540,45.601 284.497,45.601 149.287 C 45.600 16.706,45.435 25.882,47.851 24.082 L 49.000 23.225 200.046 23.213 L 351.092 23.200 352.154 24.035 M120.050 107.031 C 114.609 108.494,108.349 113.271,105.935 117.801 C 104.620 120.267,82.779 190.663,81.486 196.600 C 75.636 223.460,103.027 244.736,128.157 232.851 C 137.653 228.360,142.505 221.796,148.003 206.000 C 148.731 203.910,149.602 201.975,149.939 201.700 C 150.642 201.127,249.797 200.956,250.694 201.526 C 250.966 201.699,251.910 204.306,252.791 207.320 C 256.312 219.362,260.333 225.458,268.000 230.376 C 288.567 243.569,315.716 232.694,319.835 209.612 C 321.013 203.010,320.577 199.956,316.552 186.600 C 306.183 152.195,296.169 120.293,295.080 118.200 C 292.351 112.953,285.858 108.035,280.080 106.839 C 276.503 106.098,122.831 106.283,120.050 107.031 M282.471 108.040 C 286.124 109.462,288.787 111.246,291.289 113.950 C 295.000 117.960,295.063 118.122,303.216 144.800 C 304.056 147.550,305.308 151.600,305.998 153.800 C 313.589 177.999,319.228 197.469,319.670 201.000 C 323.392 230.752,284.439 247.390,262.717 225.325 C 257.871 220.403,256.461 217.480,252.137 203.400 L 251.400 201.000 200.550 200.898 C 160.162 200.818,149.622 200.900,149.318 201.298 C 149.108 201.574,148.340 203.510,147.612 205.600 C 141.929 221.916,136.344 229.159,126.400 233.110 C 106.266 241.109,84.563 229.057,81.419 208.130 C 80.706 203.383,81.253 198.718,83.369 191.492 C 84.821 186.535,92.360 161.957,95.605 151.600 C 97.545 145.409,98.036 143.819,99.962 137.500 C 105.734 118.555,106.044 117.773,109.161 114.306 C 112.208 110.916,117.109 108.073,121.400 107.204 C 122.280 107.026,158.280 106.908,201.400 106.940 L 279.800 107.000 282.471 108.040 M136.400 125.860 C 135.075 126.372,134.800 127.338,134.800 131.476 L 134.800 135.600 130.423 135.600 C 124.848 135.600,124.800 135.650,124.800 141.460 C 124.800 146.838,124.760 146.800,130.429 146.800 L 134.800 146.800 134.800 151.171 C 134.800 156.855,134.746 156.800,140.255 156.800 C 146.156 156.800,146.000 156.947,146.000 151.386 L 146.000 146.800 150.520 146.800 C 156.186 146.800,156.000 146.985,156.000 141.349 C 156.000 135.505,156.093 135.600,150.371 135.600 L 146.000 135.600 145.994 131.300 C 145.991 128.935,145.817 126.730,145.609 126.400 C 145.219 125.781,137.738 125.343,136.400 125.860 M145.393 127.300 C 145.508 127.795,145.646 130.000,145.701 132.200 L 145.800 136.200 150.385 136.314 C 155.805 136.449,155.586 136.248,155.594 141.067 C 155.602 146.198,155.762 146.000,151.607 146.000 C 149.678 146.000,147.538 146.113,146.850 146.250 L 145.600 146.500 145.600 150.821 C 145.600 156.339,145.547 156.402,140.871 156.395 C 135.282 156.386,135.600 156.690,135.600 151.343 C 135.600 145.869,135.748 146.000,129.561 146.000 L 125.575 146.000 125.687 141.300 L 125.800 136.600 130.176 136.486 C 135.743 136.340,135.600 136.479,135.600 131.218 C 135.600 126.008,135.189 126.400,140.659 126.400 C 145.024 126.400,145.192 126.432,145.393 127.300 M248.155 136.415 C 246.540 137.215,244.729 139.662,245.318 140.251 C 245.473 140.406,245.600 140.247,245.600 139.897 C 245.600 135.873,253.062 135.089,254.948 138.915 C 255.297 139.622,255.586 139.925,255.591 139.589 C 255.632 136.841,251.155 134.930,248.155 136.415 M266.753 137.553 C 262.215 142.091,268.025 149.151,273.495 145.745 C 275.497 144.499,276.456 141.243,275.414 139.228 C 273.548 135.618,269.475 134.830,266.753 137.553 M273.543 137.413 C 277.223 140.510,275.168 146.000,270.329 146.000 C 266.525 146.000,264.399 142.283,266.205 138.790 C 267.489 136.307,271.363 135.579,273.543 137.413 M245.216 142.411 C 245.183 143.668,247.657 146.390,248.800 146.355 C 249.333 146.339,249.333 146.312,248.800 146.118 C 247.771 145.741,246.321 144.252,245.765 143.000 C 245.471 142.340,245.224 142.075,245.216 142.411 M254.872 143.801 C 254.622 144.351,253.828 145.161,253.108 145.599 C 252.322 146.078,252.063 146.398,252.459 146.399 C 253.134 146.400,255.600 143.879,255.600 143.186 C 255.600 142.540,255.351 142.750,254.872 143.801 M257.700 146.796 C 256.985 147.232,256.400 147.685,256.400 147.803 C 256.400 147.922,256.879 147.704,257.465 147.320 C 258.051 146.936,259.356 146.506,260.365 146.365 L 262.200 146.107 260.600 146.055 C 259.630 146.023,258.488 146.315,257.700 146.796 M262.400 146.511 C 262.400 146.587,262.985 147.078,263.700 147.601 C 264.504 148.190,264.784 148.287,264.433 147.855 C 263.900 147.199,262.400 146.207,262.400 146.511 M263.439 155.046 C 262.449 155.916,261.967 156.047,260.176 155.933 C 259.020 155.860,258.158 155.935,258.261 156.100 C 258.801 156.970,262.410 156.380,263.694 155.212 C 264.412 154.558,264.910 154.024,264.800 154.024 C 264.690 154.025,264.077 154.485,263.439 155.046 M172.200 161.283 C 161.082 165.169,163.858 181.600,175.633 181.600 C 186.871 181.600,190.034 166.530,179.800 161.743 C 177.628 160.727,174.356 160.529,172.200 161.283 M221.071 161.770 C 217.063 163.734,215.210 166.748,215.204 171.313 C 215.188 182.620,230.252 185.727,235.057 175.408 C 239.044 166.847,229.568 157.607,221.071 161.770 M178.914 161.833 C 187.121 164.629,187.706 176.579,179.816 180.253 C 174.826 182.577,168.870 180.406,166.547 175.416 C 162.829 167.433,170.529 158.975,178.914 161.833 M229.829 162.321 C 234.946 164.957,236.895 170.988,234.217 175.902 C 229.172 185.156,215.583 181.543,215.604 170.954 C 215.618 163.923,223.571 159.097,229.829 162.321 " stroke="none" fill="#505867" fill-rule="evenodd"></path><path id="path1" d="M28.185 5.700 L 26.200 7.800 28.300 5.815 C 30.251 3.971,30.583 3.600,30.285 3.600 C 30.222 3.600,29.277 4.545,28.185 5.700 M121.400 107.204 C 117.109 108.073,112.208 110.916,109.161 114.306 C 106.044 117.773,105.734 118.555,99.962 137.500 C 98.036 143.819,97.545 145.409,95.605 151.600 C 92.360 161.957,84.821 186.535,83.369 191.492 C 81.253 198.718,80.706 203.383,81.419 208.130 C 84.563 229.057,106.266 241.109,126.400 233.110 C 136.344 229.159,141.929 221.916,147.612 205.600 C 148.340 203.510,149.108 201.574,149.318 201.298 C 149.622 200.900,160.162 200.818,200.550 200.898 L 251.400 201.000 252.137 203.400 C 256.461 217.480,257.871 220.403,262.717 225.325 C 284.439 247.390,323.392 230.752,319.670 201.000 C 319.228 197.469,313.589 177.999,305.998 153.800 C 305.308 151.600,304.056 147.550,303.216 144.800 C 295.063 118.122,295.000 117.960,291.289 113.950 C 288.787 111.246,286.124 109.462,282.471 108.040 L 279.800 107.000 201.400 106.940 C 158.280 106.908,122.280 107.026,121.400 107.204 M145.609 126.400 C 145.817 126.730,145.991 128.935,145.994 131.300 L 146.000 135.600 150.371 135.600 C 156.093 135.600,156.000 135.505,156.000 141.349 C 156.000 146.985,156.186 146.800,150.520 146.800 L 146.000 146.800 146.000 151.386 C 146.000 156.947,146.156 156.800,140.255 156.800 C 134.746 156.800,134.800 156.855,134.800 151.171 L 134.800 146.800 130.429 146.800 C 124.760 146.800,124.800 146.838,124.800 141.460 C 124.800 135.650,124.848 135.600,130.423 135.600 L 134.800 135.600 134.800 131.476 C 134.800 125.681,134.907 125.584,141.115 125.714 C 144.269 125.780,145.319 125.940,145.609 126.400 M262.633 126.643 C 267.499 128.951,265.794 136.400,260.400 136.400 C 255.365 136.400,253.559 129.405,257.938 126.866 C 259.700 125.844,260.837 125.790,262.633 126.643 M252.790 136.395 C 257.754 138.927,256.209 146.571,250.733 146.571 C 244.808 146.571,242.915 139.009,248.187 136.399 C 250.202 135.401,250.842 135.401,252.790 136.395 M273.584 137.048 C 276.036 139.111,276.508 141.035,275.195 143.610 C 272.514 148.866,265.200 146.936,265.200 140.973 C 265.200 136.801,270.398 134.367,273.584 137.048 M262.788 146.594 C 267.584 149.074,265.867 156.400,260.490 156.400 C 257.382 156.400,255.600 154.592,255.600 151.439 C 255.600 147.065,259.117 144.695,262.788 146.594 M179.800 161.743 C 190.034 166.530,186.871 181.600,175.633 181.600 C 169.523 181.600,165.218 177.301,165.218 171.200 C 165.218 163.570,172.964 158.546,179.800 161.743 M229.600 161.631 C 239.978 166.324,236.859 181.600,225.523 181.600 C 214.340 181.600,210.996 166.706,221.071 161.770 C 223.579 160.541,227.064 160.485,229.600 161.631 M28.800 293.400 C 29.546 294.170,30.247 294.800,30.357 294.800 C 30.467 294.800,29.946 294.170,29.200 293.400 C 28.454 292.630,27.753 292.000,27.643 292.000 C 27.533 292.000,28.054 292.630,28.800 293.400 M127.375 363.700 L 126.200 365.000 127.500 363.825 C 128.712 362.730,128.984 362.400,128.675 362.400 C 128.606 362.400,128.021 362.985,127.375 363.700 M271.200 362.525 C 271.200 362.594,271.785 363.179,272.500 363.825 L 273.800 365.000 272.625 363.700 C 271.530 362.488,271.200 362.216,271.200 362.525 " stroke="none" fill="#040404" fill-rule="evenodd"></path><path id="path2" d="M48.605 24.867 C 46.242 26.726,46.399 17.814,46.409 149.287 C 46.419 285.043,46.138 272.719,49.249 274.030 C 51.519 274.988,349.295 274.876,351.046 273.918 C 353.831 272.392,353.600 283.676,353.600 149.200 C 353.600 15.927,353.795 26.197,351.232 24.682 C 350.148 24.042,340.733 24.000,199.892 24.000 L 49.708 24.000 48.605 24.867 M279.174 106.024 C 284.084 106.820,288.472 109.260,292.214 113.274 C 296.031 117.367,296.352 118.172,303.350 141.200 C 304.119 143.730,307.379 154.350,310.595 164.800 C 321.951 201.703,322.339 203.656,319.999 212.101 C 311.765 241.816,269.824 245.540,255.893 217.793 C 254.741 215.500,252.898 210.188,250.829 203.200 L 250.533 202.200 200.517 202.098 C 160.793 202.018,150.423 202.100,150.125 202.498 C 149.918 202.774,148.975 205.160,148.030 207.800 C 140.434 229.009,130.860 236.689,112.472 236.323 C 102.620 236.127,97.313 234.083,90.602 227.899 C 80.055 218.181,77.578 206.381,82.606 189.800 C 91.818 159.422,104.268 119.751,105.121 118.061 C 107.998 112.357,115.192 107.083,121.566 106.004 C 124.478 105.512,276.132 105.530,279.174 106.024 M136.400 131.324 C 136.400 136.993,136.427 136.965,130.833 137.135 L 126.400 137.271 126.400 141.435 L 126.400 145.600 130.700 145.606 C 136.388 145.614,136.172 145.408,136.334 150.985 L 136.469 155.600 140.634 155.600 L 144.800 155.600 144.800 151.080 C 144.800 145.411,144.611 145.600,150.280 145.600 L 154.800 145.600 154.800 141.434 L 154.800 137.269 150.185 137.134 C 144.608 136.972,144.814 137.188,144.806 131.500 L 144.800 127.200 140.600 127.200 L 136.400 127.200 136.400 131.324 M171.800 162.746 C 170.920 163.147,169.535 164.212,168.723 165.114 C 161.784 172.810,170.592 184.111,179.841 179.380 C 188.388 175.010,185.214 162.018,175.600 162.018 C 174.324 162.018,172.728 162.324,171.800 162.746 M222.018 162.631 C 213.534 166.311,214.685 178.508,223.693 180.378 C 230.922 181.879,237.091 174.065,233.951 167.385 C 231.875 162.968,226.332 160.760,222.018 162.631 " stroke="none" fill="#dbdbdb" fill-rule="evenodd"></path><path id="path3" d="M248.566 136.569 C 243.970 138.570,244.890 145.605,249.835 146.269 C 255.521 147.031,257.807 139.321,252.637 136.818 C 250.675 135.868,250.236 135.841,248.566 136.569 M257.905 147.026 C 255.267 148.458,254.771 152.451,256.960 154.640 C 260.481 158.161,266.654 154.695,265.244 149.990 C 264.330 146.937,260.740 145.488,257.905 147.026 " stroke="none" fill="#f1760a" fill-rule="evenodd"></path><path id="path4" d="M257.938 126.866 C 256.171 127.891,255.600 129.029,255.600 131.530 C 255.600 136.636,262.122 138.300,264.816 133.881 C 267.561 129.379,262.502 124.220,257.938 126.866 " stroke="none" fill="#27bb28" fill-rule="evenodd"></path><path id="path5" d="M267.905 137.026 C 266.478 137.801,265.600 139.550,265.600 141.620 C 265.600 145.410,270.547 147.507,273.543 144.987 C 278.181 141.084,273.252 134.125,267.905 137.026 " stroke="none" fill="#085fe3" fill-rule="evenodd"></path><path id="path6" d="M47.851 24.082 C 45.435 25.882,45.600 16.706,45.601 149.287 C 45.601 284.497,45.360 272.540,48.129 274.572 L 49.259 275.400 199.947 275.400 C 344.515 275.400,350.680 275.371,351.737 274.678 C 354.679 272.751,354.397 286.021,354.399 149.280 C 354.400 15.829,354.581 25.945,352.154 24.035 L 351.092 23.200 200.046 23.213 L 49.000 23.225 47.851 24.082 M351.754 24.435 C 354.181 26.345,354.000 16.275,354.000 149.200 C 354.000 282.125,354.181 272.055,351.754 273.965 L 350.692 274.800 200.000 274.800 L 49.308 274.800 48.205 273.933 C 45.842 272.074,46.000 281.010,46.000 149.200 C 46.000 17.390,45.842 26.326,48.205 24.467 L 49.308 23.600 200.000 23.600 L 350.692 23.600 351.754 24.435 M161.500 106.300 C 182.895 106.357,217.905 106.357,239.300 106.300 C 260.695 106.243,243.190 106.196,200.400 106.196 C 157.610 106.196,140.105 106.243,161.500 106.300 M115.128 108.612 C 114.098 109.149,113.153 109.753,113.028 109.955 C 112.846 110.249,116.937 108.249,117.567 107.736 C 118.130 107.277,116.716 107.785,115.128 108.612 M288.200 110.265 C 290.413 112.450,293.210 114.772,291.800 113.255 C 290.920 112.308,289.660 111.159,289.000 110.702 C 288.340 110.245,287.980 110.048,288.200 110.265 M110.091 112.300 L 108.126 114.200 109.963 112.638 C 112.538 110.449,112.589 110.400,112.308 110.400 C 112.169 110.400,111.172 111.255,110.091 112.300 M107.123 115.500 C 106.418 116.321,105.890 117.200,106.101 117.200 C 106.183 117.200,106.649 116.660,107.137 116.000 C 108.101 114.696,108.092 114.372,107.123 115.500 M295.478 118.995 C 295.844 119.762,296.214 120.319,296.301 120.232 C 296.484 120.049,295.270 117.600,294.996 117.600 C 294.895 117.600,295.112 118.228,295.478 118.995 M104.046 121.239 C 103.801 121.943,103.613 122.718,103.628 122.960 C 103.644 123.202,103.914 122.696,104.230 121.835 C 104.545 120.974,104.733 120.200,104.648 120.115 C 104.562 120.029,104.292 120.535,104.046 121.239 M102.436 126.436 C 102.166 127.339,102.018 128.152,102.108 128.242 C 102.198 128.332,102.493 127.666,102.764 126.764 C 103.034 125.861,103.182 125.048,103.092 124.958 C 103.002 124.868,102.707 125.534,102.436 126.436 M298.056 126.000 C 298.056 126.330,298.211 126.960,298.400 127.400 C 298.617 127.904,298.744 127.978,298.744 127.600 C 298.744 127.270,298.589 126.640,298.400 126.200 C 298.183 125.696,298.056 125.622,298.056 126.000 M135.867 126.667 C 135.720 126.813,135.600 128.847,135.600 131.187 C 135.600 133.961,135.433 135.607,135.120 135.920 C 134.799 136.241,134.785 136.400,135.077 136.400 C 135.814 136.400,136.000 135.303,136.000 130.954 L 136.000 126.774 140.500 126.887 L 145.000 127.000 145.114 131.394 C 145.177 133.811,145.357 135.918,145.514 136.076 C 145.826 136.389,145.714 128.763,145.386 127.300 C 145.185 126.401,136.697 125.837,135.867 126.667 M299.261 130.000 C 299.261 130.330,299.503 131.230,299.800 132.000 C 300.097 132.770,300.339 133.130,300.339 132.800 C 300.339 132.470,300.097 131.570,299.800 130.800 C 299.503 130.030,299.261 129.670,299.261 130.000 M100.836 131.636 C 100.566 132.539,100.418 133.352,100.508 133.442 C 100.598 133.532,100.893 132.866,101.164 131.964 C 101.434 131.061,101.582 130.248,101.492 130.158 C 101.402 130.068,101.107 130.734,100.836 131.636 M300.861 135.200 C 300.861 135.530,301.103 136.430,301.400 137.200 C 301.697 137.970,301.939 138.330,301.939 138.000 C 301.939 137.670,301.697 136.770,301.400 136.000 C 301.103 135.230,300.861 134.870,300.861 135.200 M99.236 136.836 C 98.966 137.739,98.818 138.552,98.908 138.642 C 98.998 138.732,99.293 138.066,99.564 137.164 C 99.834 136.261,99.982 135.448,99.892 135.358 C 99.802 135.268,99.507 135.934,99.236 136.836 M125.867 136.667 C 125.497 137.036,125.529 146.000,125.900 146.001 C 126.065 146.001,126.144 143.937,126.076 141.415 L 125.952 136.828 130.276 136.699 L 134.600 136.570 130.367 136.485 C 128.038 136.438,126.013 136.520,125.867 136.667 M150.600 136.779 L 155.000 137.000 155.222 141.200 L 155.443 145.400 155.522 141.533 C 155.632 136.080,155.926 136.386,150.657 136.479 L 146.200 136.558 150.600 136.779 M302.461 140.400 C 302.461 140.730,302.703 141.630,303.000 142.400 C 303.297 143.170,303.539 143.530,303.539 143.200 C 303.539 142.870,303.297 141.970,303.000 141.200 C 302.703 140.430,302.461 140.070,302.461 140.400 M97.636 142.036 C 97.366 142.939,97.218 143.752,97.308 143.842 C 97.398 143.932,97.693 143.266,97.964 142.364 C 98.234 141.461,98.382 140.648,98.292 140.558 C 98.202 140.468,97.907 141.134,97.636 142.036 M304.061 145.600 C 304.061 145.930,304.303 146.830,304.600 147.600 C 304.897 148.370,305.139 148.730,305.139 148.400 C 305.139 148.070,304.897 147.170,304.600 146.400 C 304.303 145.630,304.061 145.270,304.061 145.600 M96.229 146.629 C 96.081 147.215,96.038 147.772,96.132 147.866 C 96.227 147.960,96.424 147.558,96.571 146.971 C 96.719 146.385,96.762 145.828,96.668 145.734 C 96.573 145.640,96.376 146.042,96.229 146.629 M145.373 146.527 C 145.261 146.817,145.229 148.932,145.301 151.227 L 145.431 155.400 145.516 150.928 C 145.597 146.639,145.637 146.449,146.500 146.282 L 147.400 146.109 146.487 146.054 C 145.986 146.025,145.484 146.237,145.373 146.527 M135.667 151.500 C 135.630 153.975,135.735 156.000,135.900 156.001 C 136.065 156.001,136.151 154.606,136.092 152.901 C 135.900 147.422,135.736 146.881,135.667 151.500 M94.240 153.040 C 93.853 154.267,93.609 155.342,93.697 155.430 C 93.785 155.518,94.173 154.587,94.560 153.360 C 94.947 152.133,95.191 151.058,95.103 150.970 C 95.015 150.882,94.627 151.813,94.240 153.040 M306.056 152.000 C 306.056 152.330,306.211 152.960,306.400 153.400 C 306.617 153.904,306.744 153.978,306.744 153.600 C 306.744 153.270,306.589 152.640,306.400 152.200 C 306.183 151.696,306.056 151.622,306.056 152.000 M93.029 157.029 C 92.881 157.615,92.838 158.172,92.932 158.266 C 93.027 158.360,93.224 157.958,93.371 157.371 C 93.519 156.785,93.562 156.228,93.468 156.134 C 93.373 156.040,93.176 156.442,93.029 157.029 M138.713 156.295 C 139.876 156.376,141.676 156.376,142.713 156.293 C 143.751 156.211,142.800 156.145,140.600 156.146 C 138.400 156.147,137.551 156.214,138.713 156.295 M307.656 157.200 C 307.656 157.530,307.811 158.160,308.000 158.600 C 308.217 159.104,308.344 159.178,308.344 158.800 C 308.344 158.470,308.189 157.840,308.000 157.400 C 307.783 156.896,307.656 156.822,307.656 157.200 M308.856 161.200 C 308.856 161.530,309.011 162.160,309.200 162.600 C 309.417 163.104,309.544 163.178,309.544 162.800 C 309.544 162.470,309.389 161.840,309.200 161.400 C 308.983 160.896,308.856 160.822,308.856 161.200 M173.633 161.346 C 173.725 161.426,174.970 161.587,176.400 161.702 C 177.927 161.826,178.670 161.778,178.200 161.585 C 177.426 161.267,173.296 161.051,173.633 161.346 M224.505 161.487 C 225.114 161.579,226.014 161.577,226.505 161.482 C 226.997 161.387,226.500 161.311,225.400 161.314 C 224.300 161.317,223.897 161.395,224.505 161.487 M169.548 163.307 C 167.041 165.220,165.584 168.230,165.659 171.346 L 165.717 173.800 165.979 170.971 C 166.313 167.366,167.736 164.803,170.313 163.169 C 171.327 162.526,171.955 162.000,171.709 162.000 C 171.463 162.000,170.491 162.588,169.548 163.307 M180.644 163.046 C 181.500 163.621,182.425 164.273,182.700 164.495 C 182.975 164.716,183.200 164.801,183.200 164.684 C 183.200 164.367,179.906 162.000,179.465 162.000 C 179.258 162.000,179.788 162.471,180.644 163.046 M231.084 163.421 C 231.790 163.977,232.839 165.010,233.416 165.716 C 233.993 166.422,234.280 166.624,234.053 166.166 C 233.611 165.268,230.592 162.397,230.099 162.404 C 229.934 162.407,230.378 162.864,231.084 163.421 M218.041 164.614 C 217.359 165.392,216.800 166.148,216.800 166.294 C 216.800 166.440,216.936 166.389,217.103 166.180 C 217.270 165.971,217.933 165.215,218.578 164.500 C 219.222 163.785,219.645 163.200,219.516 163.200 C 219.388 163.200,218.724 163.836,218.041 164.614 M310.456 166.400 C 310.456 166.730,310.611 167.360,310.800 167.800 C 311.017 168.304,311.144 168.378,311.144 168.000 C 311.144 167.670,310.989 167.040,310.800 166.600 C 310.583 166.096,310.456 166.022,310.456 166.400 M89.029 169.829 C 88.881 170.415,88.838 170.972,88.932 171.066 C 89.027 171.160,89.224 170.758,89.371 170.171 C 89.519 169.585,89.562 169.028,89.468 168.934 C 89.373 168.840,89.176 169.242,89.029 169.829 M215.728 171.200 C 215.728 172.630,215.801 173.215,215.889 172.500 C 215.978 171.785,215.978 170.615,215.889 169.900 C 215.801 169.185,215.728 169.770,215.728 171.200 M185.301 171.400 C 185.305 172.280,185.387 172.593,185.483 172.095 C 185.579 171.598,185.575 170.878,185.475 170.495 C 185.375 170.113,185.296 170.520,185.301 171.400 M235.293 171.200 C 235.293 171.970,235.375 172.285,235.476 171.900 C 235.576 171.515,235.576 170.885,235.476 170.500 C 235.375 170.115,235.293 170.430,235.293 171.200 M312.056 171.600 C 312.056 171.930,312.211 172.560,312.400 173.000 C 312.617 173.504,312.744 173.578,312.744 173.200 C 312.744 172.870,312.589 172.240,312.400 171.800 C 312.183 171.296,312.056 171.222,312.056 171.600 M87.636 174.436 C 87.366 175.339,87.218 176.152,87.308 176.242 C 87.398 176.332,87.693 175.666,87.964 174.764 C 88.234 173.861,88.382 173.048,88.292 172.958 C 88.202 172.868,87.907 173.534,87.636 174.436 M184.330 175.218 C 183.961 176.088,183.731 176.800,183.819 176.800 C 184.113 176.800,185.250 174.351,185.124 173.991 C 185.056 173.796,184.698 174.349,184.330 175.218 M167.114 176.600 C 167.341 177.040,168.038 177.849,168.663 178.399 L 169.800 179.397 168.603 177.999 C 166.707 175.782,166.680 175.758,167.114 176.600 M232.800 177.600 C 232.330 178.260,232.036 178.800,232.146 178.800 C 232.256 178.800,232.730 178.260,233.200 177.600 C 233.670 176.940,233.964 176.400,233.854 176.400 C 233.744 176.400,233.270 176.940,232.800 177.600 M313.656 176.800 C 313.656 177.130,313.811 177.760,314.000 178.200 C 314.217 178.704,314.344 178.778,314.344 178.400 C 314.344 178.070,314.189 177.440,314.000 177.000 C 313.783 176.496,313.656 176.422,313.656 176.800 M219.115 178.700 C 220.084 179.635,221.080 180.400,221.328 180.400 C 221.575 180.400,221.333 180.103,220.789 179.740 C 220.245 179.376,219.249 178.611,218.577 178.040 C 217.904 177.468,218.146 177.765,219.115 178.700 M182.562 178.043 C 181.249 179.494,178.716 180.532,175.800 180.813 L 173.000 181.083 175.400 181.137 C 178.136 181.200,181.137 180.025,182.770 178.253 C 183.303 177.674,183.646 177.200,183.532 177.200 C 183.417 177.200,182.981 177.579,182.562 178.043 M86.036 179.636 C 85.766 180.539,85.618 181.352,85.708 181.442 C 85.798 181.532,86.093 180.866,86.364 179.964 C 86.634 179.061,86.782 178.248,86.692 178.158 C 86.602 178.068,86.307 178.734,86.036 179.636 M230.027 179.713 C 229.152 180.252,227.628 180.654,225.827 180.821 L 223.000 181.083 225.400 181.133 C 227.774 181.182,230.759 180.237,231.374 179.242 C 231.721 178.680,231.677 178.696,230.027 179.713 M170.000 179.396 C 170.000 179.670,172.449 180.884,172.632 180.701 C 172.719 180.614,172.162 180.244,171.395 179.878 C 170.628 179.512,170.000 179.295,170.000 179.396 M314.861 180.800 C 314.861 181.130,315.103 182.030,315.400 182.800 C 315.697 183.570,315.939 183.930,315.939 183.600 C 315.939 183.270,315.697 182.370,315.400 181.600 C 315.103 180.830,314.861 180.470,314.861 180.800 M84.436 184.836 C 84.166 185.739,84.018 186.552,84.108 186.642 C 84.198 186.732,84.493 186.066,84.764 185.164 C 85.034 184.261,85.182 183.448,85.092 183.358 C 85.002 183.268,84.707 183.934,84.436 184.836 M83.029 189.429 C 82.881 190.015,82.838 190.572,82.932 190.666 C 83.027 190.760,83.224 190.358,83.371 189.771 C 83.519 189.185,83.562 188.628,83.468 188.534 C 83.373 188.440,83.176 188.842,83.029 189.429 M317.261 188.800 C 317.261 189.130,317.503 190.030,317.800 190.800 C 318.097 191.570,318.339 191.930,318.339 191.600 C 318.339 191.270,318.097 190.370,317.800 189.600 C 317.503 188.830,317.261 188.470,317.261 188.800 M81.600 194.400 C 81.330 195.524,81.189 196.523,81.287 196.620 C 81.384 196.717,81.677 195.870,81.938 194.738 C 82.200 193.606,82.341 192.607,82.252 192.519 C 82.163 192.430,81.870 193.276,81.600 194.400 M319.881 198.400 C 320.006 199.610,320.174 200.675,320.254 200.767 C 320.535 201.087,320.317 198.191,319.987 197.200 C 319.771 196.554,319.734 196.980,319.881 198.400 M80.501 201.000 C 80.505 201.880,80.587 202.193,80.683 201.695 C 80.779 201.198,80.775 200.478,80.675 200.095 C 80.575 199.713,80.496 200.120,80.501 201.000 M149.917 201.700 C 149.567 201.975,149.179 202.650,149.055 203.200 C 148.854 204.096,148.879 204.084,149.297 203.087 C 149.966 201.492,147.050 201.571,200.988 201.690 L 250.576 201.800 251.082 202.800 C 251.429 203.485,251.590 203.588,251.594 203.129 C 251.612 201.102,254.222 201.200,200.448 201.200 C 161.138 201.200,150.418 201.306,149.917 201.700 M320.520 204.000 C 320.520 205.210,320.595 205.705,320.687 205.100 C 320.778 204.495,320.778 203.505,320.687 202.900 C 320.595 202.295,320.520 202.790,320.520 204.000 M251.656 204.400 C 251.656 204.730,251.811 205.360,252.000 205.800 C 252.217 206.304,252.344 206.378,252.344 206.000 C 252.344 205.670,252.189 205.040,252.000 204.600 C 251.783 204.096,251.656 204.022,251.656 204.400 M80.493 207.600 C 80.493 208.370,80.575 208.685,80.676 208.300 C 80.776 207.915,80.776 207.285,80.676 206.900 C 80.575 206.515,80.493 206.830,80.493 207.600 M252.456 207.200 C 252.456 207.530,252.611 208.160,252.800 208.600 C 253.017 209.104,253.144 209.178,253.144 208.800 C 253.144 208.470,252.989 207.840,252.800 207.400 C 252.583 206.896,252.456 206.822,252.456 207.200 M320.060 208.050 C 320.027 208.628,319.911 209.707,319.801 210.450 L 319.603 211.800 320.024 210.457 C 320.255 209.719,320.372 208.639,320.282 208.057 L 320.120 207.000 320.060 208.050 M253.621 211.085 C 253.594 211.707,255.232 216.102,255.420 215.914 C 255.498 215.836,255.130 214.608,254.602 213.186 C 254.074 211.764,253.632 210.818,253.621 211.085 M81.248 212.000 C 81.242 212.330,81.483 213.140,81.786 213.800 C 82.493 215.345,82.503 214.626,81.800 212.800 C 81.503 212.030,81.255 211.670,81.248 212.000 M144.065 215.817 C 143.395 217.288,143.523 217.602,144.247 216.265 C 144.586 215.640,144.788 215.054,144.696 214.963 C 144.605 214.871,144.321 215.256,144.065 215.817 M317.665 216.617 C 316.995 218.088,317.123 218.402,317.847 217.065 C 318.186 216.440,318.388 215.854,318.296 215.763 C 318.205 215.671,317.921 216.056,317.665 216.617 M84.557 219.917 C 86.197 223.089,90.265 227.625,93.400 229.777 L 95.000 230.876 93.600 229.762 C 90.955 227.657,87.263 223.623,85.776 221.213 C 84.222 218.695,83.563 217.995,84.557 219.917 M141.800 220.400 C 141.459 221.060,141.269 221.600,141.379 221.600 C 141.489 221.600,141.859 221.060,142.200 220.400 C 142.541 219.740,142.731 219.200,142.621 219.200 C 142.511 219.200,142.141 219.740,141.800 220.400 M139.760 223.500 C 139.135 224.325,137.899 225.826,137.012 226.836 C 135.644 228.393,135.709 228.355,137.441 226.581 C 139.412 224.561,141.444 222.000,141.075 222.000 C 140.976 222.000,140.384 222.675,139.760 223.500 M259.899 223.400 C 260.579 224.280,262.091 225.900,263.258 227.000 C 264.977 228.619,264.854 228.428,262.615 226.000 C 258.833 221.897,258.468 221.548,259.899 223.400 M312.000 225.290 C 309.775 227.735,307.697 229.489,304.152 231.915 C 303.738 232.198,304.194 232.018,305.164 231.515 C 307.024 230.551,312.642 225.507,314.034 223.552 C 315.294 221.783,314.833 222.177,312.000 225.290 M133.400 229.833 C 132.740 230.386,130.580 231.653,128.600 232.648 C 126.620 233.644,125.450 234.335,126.000 234.184 C 128.314 233.547,136.048 228.842,134.800 228.831 C 134.690 228.830,134.060 229.281,133.400 229.833 M266.548 229.741 C 267.623 230.646,271.266 232.826,270.775 232.271 C 270.652 232.131,269.392 231.288,267.975 230.396 C 266.559 229.505,265.917 229.210,266.548 229.741 M96.400 231.798 C 96.400 232.067,100.449 234.084,100.629 233.905 C 100.711 233.823,99.793 233.273,98.589 232.682 C 97.385 232.092,96.400 231.694,96.400 231.798 M272.800 233.400 C 273.350 233.714,273.980 233.972,274.200 233.972 C 274.420 233.972,274.150 233.714,273.600 233.400 C 273.050 233.086,272.420 232.828,272.200 232.828 C 271.980 232.828,272.250 233.086,272.800 233.400 M298.600 234.257 C 297.280 234.787,296.740 235.113,297.400 234.980 C 298.643 234.730,302.107 233.258,301.400 233.280 C 301.180 233.287,299.920 233.727,298.600 234.257 M102.343 234.651 C 103.081 234.973,104.251 235.325,104.943 235.432 C 105.634 235.540,105.120 235.264,103.800 234.820 C 101.017 233.883,100.425 233.814,102.343 234.651 M275.800 234.614 C 276.460 234.917,277.270 235.158,277.600 235.152 C 277.930 235.145,277.570 234.897,276.800 234.600 C 274.974 233.897,274.255 233.907,275.800 234.614 M121.600 235.200 C 120.796 235.457,120.757 235.523,121.400 235.532 C 121.840 235.538,122.560 235.389,123.000 235.200 C 124.019 234.762,122.968 234.762,121.600 235.200 M111.900 236.293 C 112.835 236.377,114.365 236.377,115.300 236.293 C 116.235 236.209,115.470 236.140,113.600 236.140 C 111.730 236.140,110.965 236.209,111.900 236.293 M285.500 236.293 C 286.435 236.377,287.965 236.377,288.900 236.293 C 289.835 236.209,289.070 236.140,287.200 236.140 C 285.330 236.140,284.565 236.209,285.500 236.293 " stroke="none" fill="#929292" fill-rule="evenodd"></path><path id="path7" d="M48.205 24.467 C 45.842 26.326,46.000 17.390,46.000 149.200 C 46.000 251.316,46.087 270.634,46.552 271.746 C 47.293 273.521,49.010 274.811,50.554 274.754 C 51.349 274.724,51.511 274.644,51.000 274.531 C 48.801 274.047,47.867 273.391,47.158 271.830 C 46.443 270.255,46.417 266.099,46.409 149.287 C 46.399 17.814,46.242 26.726,48.605 24.867 L 49.708 24.000 199.892 24.000 C 340.733 24.000,350.148 24.042,351.232 24.682 C 353.795 26.197,353.600 15.927,353.600 149.200 C 353.600 260.485,353.546 270.592,352.948 271.853 C 352.259 273.306,351.365 273.954,349.400 274.429 L 348.200 274.718 349.446 274.759 C 350.891 274.807,352.549 273.645,353.408 271.985 C 353.927 270.981,354.000 255.812,354.000 149.200 C 354.000 16.275,354.181 26.345,351.754 24.435 L 350.692 23.600 200.000 23.600 L 49.308 23.600 48.205 24.467 M161.700 105.900 C 182.985 105.957,217.815 105.957,239.100 105.900 C 260.385 105.843,242.970 105.796,200.400 105.796 C 157.830 105.796,140.415 105.843,161.700 105.900 M119.800 106.410 C 119.266 106.647,119.598 106.686,120.800 106.527 C 121.790 106.396,122.675 106.224,122.767 106.144 C 123.114 105.843,120.564 106.072,119.800 106.410 M280.200 106.554 C 286.820 108.095,292.613 112.698,295.802 118.951 C 296.601 120.518,297.132 121.350,296.982 120.800 C 295.243 114.420,286.317 106.870,279.712 106.192 C 277.889 106.005,277.912 106.021,280.200 106.554 M116.121 107.776 C 110.533 110.378,103.600 118.062,103.600 121.654 C 103.600 121.942,104.236 120.850,105.013 119.228 C 107.463 114.116,111.241 110.429,116.542 107.974 C 117.894 107.349,118.820 106.830,118.600 106.822 C 118.380 106.814,117.264 107.243,116.121 107.776 M297.262 122.400 C 297.262 122.730,297.594 123.900,298.000 125.000 C 298.406 126.100,298.738 126.730,298.738 126.400 C 298.738 126.070,298.406 124.900,298.000 123.800 C 297.594 122.700,297.262 122.070,297.262 122.400 M102.640 124.640 C 102.253 125.867,102.009 126.942,102.097 127.030 C 102.185 127.118,102.573 126.187,102.960 124.960 C 103.347 123.733,103.591 122.658,103.503 122.570 C 103.415 122.482,103.027 123.413,102.640 124.640 M135.994 131.087 C 135.986 136.791,136.195 136.572,130.603 136.735 L 125.974 136.869 126.087 141.335 L 126.200 145.800 130.594 145.914 C 135.965 146.054,135.756 145.846,136.000 151.318 L 136.200 155.800 140.600 155.800 L 145.000 155.800 145.200 151.000 L 145.400 146.200 150.200 146.000 L 155.000 145.800 155.000 141.400 L 155.000 137.000 150.518 136.800 C 145.046 136.556,145.254 136.765,145.114 131.394 L 145.000 127.000 140.500 126.887 L 136.000 126.774 135.994 131.087 M144.806 131.500 C 144.814 137.188,144.608 136.972,150.185 137.134 L 154.800 137.269 154.800 141.434 L 154.800 145.600 150.280 145.600 C 144.611 145.600,144.800 145.411,144.800 151.080 L 144.800 155.600 140.634 155.600 L 136.469 155.600 136.334 150.985 C 136.172 145.408,136.388 145.614,130.700 145.606 L 126.400 145.600 126.400 141.435 L 126.400 137.271 130.833 137.135 C 136.427 136.965,136.400 136.993,136.400 131.324 L 136.400 127.200 140.600 127.200 L 144.800 127.200 144.806 131.500 M298.862 127.600 C 298.862 127.930,299.194 129.100,299.600 130.200 C 300.006 131.300,300.338 131.930,300.338 131.600 C 300.338 131.270,300.006 130.100,299.600 129.000 C 299.194 127.900,298.862 127.270,298.862 127.600 M101.040 129.840 C 100.653 131.067,100.409 132.142,100.497 132.230 C 100.585 132.318,100.973 131.387,101.360 130.160 C 101.747 128.933,101.991 127.858,101.903 127.770 C 101.815 127.682,101.427 128.613,101.040 129.840 M300.462 132.800 C 300.462 133.130,300.794 134.300,301.200 135.400 C 301.606 136.500,301.938 137.130,301.938 136.800 C 301.938 136.470,301.606 135.300,301.200 134.200 C 300.794 133.100,300.462 132.470,300.462 132.800 M99.440 135.040 C 99.053 136.267,98.809 137.342,98.897 137.430 C 98.985 137.518,99.373 136.587,99.760 135.360 C 100.147 134.133,100.391 133.058,100.303 132.970 C 100.215 132.882,99.827 133.813,99.440 135.040 M302.062 138.000 C 302.062 138.330,302.394 139.500,302.800 140.600 C 303.206 141.700,303.538 142.330,303.538 142.000 C 303.538 141.670,303.206 140.500,302.800 139.400 C 302.394 138.300,302.062 137.670,302.062 138.000 M97.840 140.240 C 97.453 141.467,97.209 142.542,97.297 142.630 C 97.385 142.718,97.773 141.787,98.160 140.560 C 98.547 139.333,98.791 138.258,98.703 138.170 C 98.615 138.082,98.227 139.013,97.840 140.240 M303.656 143.200 C 303.656 143.530,303.811 144.160,304.000 144.600 C 304.217 145.104,304.344 145.178,304.344 144.800 C 304.344 144.470,304.189 143.840,304.000 143.400 C 303.783 142.896,303.656 142.822,303.656 143.200 M95.450 148.050 C 94.628 150.711,94.025 152.958,94.111 153.044 C 94.196 153.130,94.940 151.023,95.763 148.363 C 96.585 145.702,97.188 143.455,97.102 143.368 C 97.015 143.282,96.272 145.389,95.450 148.050 M305.262 148.400 C 305.262 148.730,305.594 149.900,306.000 151.000 C 306.406 152.100,306.738 152.730,306.738 152.400 C 306.738 152.070,306.406 150.900,306.000 149.800 C 305.594 148.700,305.262 148.070,305.262 148.400 M306.862 153.600 C 306.862 153.930,307.194 155.100,307.600 156.200 C 308.006 157.300,308.338 157.930,308.338 157.600 C 308.338 157.270,308.006 156.100,307.600 155.000 C 307.194 153.900,306.862 153.270,306.862 153.600 M92.667 157.067 C 92.309 158.323,92.087 159.420,92.172 159.505 C 92.256 159.590,92.623 158.637,92.987 157.387 C 93.350 156.137,93.573 155.040,93.482 154.948 C 93.391 154.857,93.024 155.811,92.667 157.067 M308.439 158.538 C 308.376 159.084,310.075 164.458,310.254 164.279 C 310.344 164.189,309.982 162.784,309.448 161.158 C 308.915 159.531,308.461 158.352,308.439 158.538 M91.067 162.267 C 90.709 163.523,90.487 164.620,90.572 164.705 C 90.656 164.790,91.023 163.837,91.387 162.587 C 91.750 161.337,91.973 160.240,91.882 160.148 C 91.791 160.057,91.424 161.011,91.067 162.267 M171.267 162.641 C 168.493 164.024,165.969 167.504,166.013 169.887 C 166.020 170.279,166.357 169.643,166.761 168.473 C 168.098 164.601,170.912 162.438,175.200 161.987 L 177.800 161.714 175.579 161.657 C 173.907 161.614,172.840 161.858,171.267 162.641 M221.384 162.547 C 218.445 163.915,215.924 167.314,216.041 169.749 C 216.070 170.363,216.163 170.265,216.372 169.400 C 217.577 164.421,221.417 161.671,226.558 162.106 C 228.010 162.229,228.676 162.180,228.200 161.985 C 226.595 161.326,223.448 161.585,221.384 162.547 M179.200 162.637 C 181.103 163.460,183.144 165.468,184.040 167.400 C 184.448 168.280,184.786 168.746,184.791 168.435 C 184.821 166.517,180.315 161.969,178.431 162.016 C 178.084 162.024,178.430 162.304,179.200 162.637 M230.687 163.564 C 232.421 164.820,233.723 166.446,234.184 167.930 C 234.343 168.442,234.562 168.771,234.671 168.663 C 235.395 167.938,230.809 162.400,229.484 162.400 C 229.262 162.400,229.803 162.924,230.687 163.564 M310.456 165.200 C 310.456 165.530,310.611 166.160,310.800 166.600 C 311.017 167.104,311.144 167.178,311.144 166.800 C 311.144 166.470,310.989 165.840,310.800 165.400 C 310.583 164.896,310.456 164.822,310.456 165.200 M89.440 167.440 C 89.053 168.667,88.809 169.742,88.897 169.830 C 88.985 169.918,89.373 168.987,89.760 167.760 C 90.147 166.533,90.391 165.458,90.303 165.370 C 90.215 165.282,89.827 166.213,89.440 167.440 M184.872 171.221 C 184.731 175.568,182.437 178.617,178.208 180.079 C 177.104 180.461,176.560 180.778,177.000 180.783 C 181.140 180.830,185.455 175.604,185.097 170.977 L 184.944 169.000 184.872 171.221 M234.920 171.200 C 234.920 172.410,234.995 172.905,235.087 172.300 C 235.178 171.695,235.178 170.705,235.087 170.100 C 234.995 169.495,234.920 169.990,234.920 171.200 M312.056 170.400 C 312.056 170.730,312.211 171.360,312.400 171.800 C 312.617 172.304,312.744 172.378,312.744 172.000 C 312.744 171.670,312.589 171.040,312.400 170.600 C 312.183 170.096,312.056 170.022,312.056 170.400 M87.840 172.640 C 87.453 173.867,87.209 174.942,87.297 175.030 C 87.385 175.118,87.773 174.187,88.160 172.960 C 88.547 171.733,88.791 170.658,88.703 170.570 C 88.615 170.482,88.227 171.413,87.840 172.640 M166.006 172.833 C 166.009 173.365,166.189 174.070,166.406 174.400 C 166.682 174.822,166.723 174.585,166.542 173.600 C 166.225 171.875,165.998 171.549,166.006 172.833 M216.036 173.000 C 215.965 176.158,220.845 180.869,224.087 180.773 C 224.594 180.758,224.167 180.522,223.128 180.242 C 219.833 179.355,217.618 177.210,216.588 173.911 C 216.294 172.970,216.045 172.560,216.036 173.000 M312.847 173.000 C 312.828 173.220,313.513 175.560,314.369 178.200 C 315.224 180.840,315.941 182.820,315.961 182.600 C 315.981 182.380,315.296 180.040,314.439 177.400 C 313.582 174.760,312.866 172.780,312.847 173.000 M233.884 175.119 C 232.927 177.288,230.774 179.194,228.327 180.039 C 227.157 180.443,226.570 180.780,227.021 180.787 C 229.422 180.825,233.365 177.722,234.411 174.972 C 235.044 173.307,234.632 173.422,233.884 175.119 M166.800 175.430 C 166.800 177.042,172.009 180.852,174.087 180.759 C 174.827 180.726,174.773 180.663,173.800 180.425 C 171.541 179.872,169.292 178.430,168.046 176.736 C 167.361 175.805,166.800 175.217,166.800 175.430 M86.240 177.840 C 85.853 179.067,85.609 180.142,85.697 180.230 C 85.785 180.318,86.173 179.387,86.560 178.160 C 86.947 176.933,87.191 175.858,87.103 175.770 C 87.015 175.682,86.627 176.613,86.240 177.840 M84.640 183.040 C 84.253 184.267,84.009 185.342,84.097 185.430 C 84.185 185.518,84.573 184.587,84.960 183.360 C 85.347 182.133,85.591 181.058,85.503 180.970 C 85.415 180.882,85.027 181.813,84.640 183.040 M316.037 183.362 C 315.976 183.954,318.150 190.952,318.273 190.560 C 318.336 190.362,317.867 188.580,317.231 186.600 C 316.595 184.620,316.058 183.163,316.037 183.362 M82.633 189.633 C 82.032 191.636,81.612 193.346,81.700 193.433 C 81.788 193.521,82.350 191.954,82.950 189.950 C 83.550 187.946,83.970 186.236,83.883 186.150 C 83.797 186.063,83.234 187.631,82.633 189.633 M318.456 191.600 C 318.456 191.930,318.611 192.560,318.800 193.000 C 319.017 193.504,319.144 193.578,319.144 193.200 C 319.144 192.870,318.989 192.240,318.800 191.800 C 318.583 191.296,318.456 191.222,318.456 191.600 M81.056 194.884 C 80.921 195.388,80.827 196.160,80.846 196.600 C 80.865 197.040,81.045 196.698,81.246 195.840 C 81.636 194.178,81.470 193.340,81.056 194.884 M319.256 194.400 C 319.256 194.730,319.411 195.360,319.600 195.800 C 319.817 196.304,319.944 196.378,319.944 196.000 C 319.944 195.670,319.789 195.040,319.600 194.600 C 319.383 194.096,319.256 194.022,319.256 194.400 M320.298 199.200 C 320.413 200.630,320.574 201.875,320.654 201.967 C 320.949 202.304,320.733 198.174,320.415 197.400 C 320.222 196.930,320.174 197.673,320.298 199.200 M80.257 199.100 C 79.835 201.652,80.049 208.497,80.616 210.600 L 81.156 212.600 80.878 210.800 C 80.725 209.810,80.601 206.435,80.602 203.300 C 80.605 196.978,80.606 196.988,80.257 199.100 M150.100 201.865 C 149.825 201.976,149.600 202.254,149.600 202.482 C 149.600 202.753,149.790 202.741,150.143 202.447 C 150.540 202.117,164.050 202.024,200.619 202.098 L 250.553 202.200 251.932 206.911 C 252.691 209.501,253.384 211.549,253.472 211.461 C 253.700 211.233,251.171 202.700,250.697 202.100 C 250.302 201.600,151.330 201.369,150.100 201.865 M147.631 207.899 C 142.722 221.470,138.027 227.915,129.713 232.494 C 126.806 234.094,126.527 234.557,129.316 233.151 C 133.627 230.979,138.310 226.832,141.166 222.660 C 143.487 219.269,150.085 203.952,149.484 203.351 C 149.400 203.267,148.566 205.313,147.631 207.899 M320.467 207.600 C 320.424 208.590,320.296 209.850,320.183 210.400 L 319.977 211.400 320.407 210.415 C 320.644 209.874,320.771 208.614,320.691 207.615 L 320.544 205.800 320.467 207.600 M319.387 212.900 C 318.082 219.040,311.020 228.237,305.006 231.631 C 302.482 233.056,302.025 233.611,304.355 232.423 C 309.467 229.815,315.139 223.625,317.938 217.599 C 319.415 214.418,320.320 211.600,319.864 211.600 C 319.754 211.600,319.539 212.185,319.387 212.900 M81.221 213.112 C 81.122 215.530,86.391 223.977,90.250 227.587 C 94.139 231.225,101.650 235.596,104.000 235.588 C 104.330 235.587,103.087 234.973,101.237 234.223 C 92.545 230.698,85.940 224.067,82.321 215.234 C 81.727 213.785,81.232 212.830,81.221 213.112 M254.412 214.510 C 254.388 215.127,257.331 220.638,258.518 222.200 C 262.802 227.839,269.914 233.241,274.800 234.567 C 275.350 234.716,274.326 234.126,272.524 233.255 C 264.866 229.553,260.051 224.904,256.112 217.412 C 255.183 215.645,254.418 214.339,254.412 214.510 M301.200 233.610 C 300.154 234.304,295.448 235.619,292.776 235.965 C 290.687 236.236,290.509 236.308,291.836 236.349 C 293.861 236.412,299.026 235.121,301.074 234.041 C 301.913 233.598,302.420 233.230,302.200 233.224 C 301.980 233.217,301.530 233.391,301.200 233.610 M124.200 234.834 C 123.100 235.259,122.720 235.505,123.356 235.381 C 124.614 235.137,127.250 234.066,126.600 234.064 C 126.380 234.063,125.300 234.409,124.200 234.834 M276.391 235.154 C 277.220 235.723,281.996 236.526,283.200 236.298 C 283.913 236.163,283.741 236.090,282.600 236.045 C 281.179 235.988,279.004 235.594,276.600 234.959 C 275.964 234.791,275.921 234.831,276.391 235.154 M105.600 236.003 C 106.589 236.317,110.688 236.534,110.367 236.256 C 110.275 236.177,108.940 236.016,107.400 235.899 C 105.773 235.775,105.019 235.819,105.600 236.003 M118.600 236.000 L 116.600 236.274 118.400 236.297 C 119.390 236.310,120.650 236.176,121.200 236.000 C 122.444 235.601,121.506 235.601,118.600 236.000 " stroke="none" fill="#acacac" fill-rule="evenodd"></path></g></svg>