<?xml version="1.0" standalone="no"?>
<!DOCTYPE svg PUBLIC "-//W3C//DTD SVG 20010904//EN"
 "http://www.w3.org/TR/2001/REC-SVG-20010904/DTD/svg10.dtd">
<svg version="1.0" xmlns="http://www.w3.org/2000/svg"
 width="1280.000000pt" height="498.000000pt" viewBox="0 0 1280.000000 498.000000"
 preserveAspectRatio="xMidYMid meet">

<g transform="translate(0.000000,498.000000) scale(0.100000,-0.100000)"
fill="#000000" stroke="none">
<path d="M2275 4764 c-850 -149 -1314 -1069 -927 -1839 62 -124 132 -217 251
-335 215 -211 456 -326 754 -359 135 -15 7959 -15 8094 0 300 33 552 155 764
368 236 237 359 510 376 837 30 582 -339 1114 -892 1287 -197 61 123 57 -4304
56 -3423 -1 -4048 -3 -4116 -15z m8230 -303 c180 -37 335 -117 469 -242 100
-94 159 -173 217 -294 59 -124 89 -240 96 -371 25 -464 -277 -876 -734 -1002
l-98 -27 -4050 0 -4050 0 -89 23 c-215 54 -402 171 -531 331 -242 300 -292
695 -130 1038 54 115 90 167 179 261 139 147 308 241 506 283 81 17 277 18
4105 18 3883 1 4023 0 4110 -18z"/>
<path d="M2230 3500 l0 -590 180 0 180 0 2 420 3 421 270 -420 270 -420 178
-1 177 0 0 590 0 590 -175 0 -175 0 -2 -412 -3 -412 -260 411 -260 412 -192 1
-193 0 0 -590z"/>
<path d="M3720 3985 l0 -105 175 0 175 0 0 105 0 105 -175 0 -175 0 0 -105z"/>
<path d="M9060 3875 c0 -118 -2 -215 -4 -215 -2 0 -35 15 -72 33 -64 30 -76
32 -174 32 -93 0 -111 -3 -163 -27 -164 -77 -269 -266 -240 -433 31 -179 161
-329 322 -371 75 -19 160 -13 260 18 45 14 66 17 69 9 2 -7 59 -11 178 -11
l174 0 0 590 0 590 -175 0 -175 0 0 -215z m-64 -294 c57 -35 66 -79 62 -305
l-3 -198 -27 -23 c-51 -44 -165 -44 -216 0 l-27 23 -3 201 c-3 180 -1 205 16
244 32 72 129 100 198 58z"/>
<path d="M10560 4070 c-56 -34 -84 -82 -88 -154 -2 -49 2 -68 20 -101 61 -105
191 -122 282 -37 80 76 71 209 -19 278 -51 38 -143 45 -195 14z m169 -27 c100
-75 94 -226 -12 -277 -123 -58 -253 51 -217 183 21 79 83 125 159 117 24 -2
55 -13 70 -23z"/>
<path d="M10582 3918 c2 -54 7 -83 16 -86 7 -2 12 6 12 22 0 35 34 35 56 0 11
-17 20 -22 27 -15 7 7 6 15 -3 26 -11 13 -10 18 4 33 41 46 3 102 -69 102
l-46 0 3 -82z m93 22 c0 -21 -5 -26 -32 -28 -31 -3 -33 -1 -33 28 0 29 2 31
33 28 27 -2 32 -7 32 -28z"/>
<path d="M5530 3895 l0 -85 -95 0 -95 0 0 -50 0 -50 95 0 95 0 0 -400 0 -400
180 0 180 0 0 400 0 400 95 0 95 0 0 50 0 49 -92 3 -93 3 -3 83 -3 82 -179 0
-180 0 0 -85z"/>
<path d="M4725 3680 c-52 -27 -97 -50 -100 -50 -3 0 -5 18 -5 40 l0 40 -175 0
-175 0 0 -400 0 -400 175 0 175 0 0 284 0 284 42 36 c54 47 124 68 173 55 20
-6 54 -26 76 -46 l39 -35 0 -289 0 -289 180 0 180 0 0 293 0 293 -28 45 c-38
60 -102 112 -186 155 -65 32 -74 34 -172 34 l-104 0 -95 -50z"/>
<path d="M6432 3716 c-96 -24 -194 -80 -259 -149 -68 -73 -99 -132 -111 -211
-33 -212 123 -418 365 -480 76 -20 219 -20 301 -1 94 22 179 70 247 139 49 49
105 135 105 161 0 3 -81 5 -180 5 l-180 0 0 -73 c0 -51 -5 -79 -16 -96 -34
-48 -130 -65 -200 -36 -52 21 -64 60 -64 205 l0 120 331 0 332 0 -6 44 c-24
175 -170 321 -368 370 -77 19 -221 20 -297 2z m226 -83 c41 -26 62 -72 62
-140 l0 -63 -140 0 -140 0 0 48 c0 95 32 153 96 172 35 10 91 3 122 -17z"/>
<path d="M9926 3714 c-139 -34 -270 -135 -329 -254 -30 -60 -32 -72 -32 -165
0 -93 2 -105 32 -166 59 -118 185 -216 330 -253 77 -20 221 -20 298 -1 178 46
311 161 360 314 27 82 17 191 -23 274 -58 116 -188 214 -337 252 -73 19 -220
18 -299 -1z m227 -76 c10 -5 27 -24 37 -41 18 -30 20 -52 20 -300 0 -173 -4
-275 -11 -289 -14 -27 -69 -48 -123 -48 -55 0 -88 12 -115 41 -20 22 -21 32
-21 291 0 220 3 274 15 298 31 60 131 84 198 48z"/>
<path d="M3720 3310 l0 -400 175 0 175 0 0 400 0 400 -175 0 -175 0 0 -400z"/>
<path d="M7794 3696 c-23 -7 -76 -32 -118 -55 l-76 -42 0 40 0 41 -180 0 -180
0 0 -400 0 -400 180 0 180 0 0 289 0 290 37 30 c21 17 59 38 86 47 64 21 111
8 167 -45 l40 -38 0 -286 0 -287 180 0 180 0 0 286 c0 249 -2 291 -17 322 -27
59 -114 137 -198 178 -66 33 -87 38 -158 41 -50 2 -98 -2 -123 -11z"/>
<path d="M210 1603 c0 -266 1 -290 20 -327 24 -50 69 -82 135 -96 31 -6 162
-9 340 -8 l290 3 0 75 0 75 -275 2 c-266 3 -276 4 -292 24 -26 30 -22 64 8 88
25 20 39 21 275 21 l249 0 0 70 0 70 -255 0 c-242 0 -256 1 -275 20 -26 26
-25 62 1 86 19 18 42 19 295 22 l274 3 0 79 0 80 -395 0 -395 0 0 -287z"/>
<path d="M1160 1530 l0 -361 113 3 112 3 3 256 c2 245 3 257 23 275 19 17 39
19 220 19 267 0 243 30 247 -301 l3 -255 107 3 107 3 3 270 2 269 -25 52 c-28
58 -81 101 -142 115 -21 5 -203 9 -405 9 l-368 0 0 -360z"/>
<path d="M2200 1811 l0 -79 133 -4 c72 -2 138 -7 145 -11 9 -6 12 -73 12 -278
l0 -269 110 0 110 0 0 269 c0 205 3 272 13 278 6 4 72 9 145 11 l132 4 0 79 0
79 -400 0 -400 0 0 -79z"/>
<path d="M3100 1602 c0 -283 0 -290 23 -333 17 -32 37 -50 72 -69 49 -25 50
-25 367 -28 l318 -3 0 80 0 81 -274 0 c-273 0 -275 0 -290 22 -23 33 -19 64
10 87 25 20 39 21 275 21 l249 0 0 70 0 70 -255 0 c-242 0 -256 1 -275 20 -26
26 -25 62 1 86 19 18 42 19 290 22 l269 3 0 79 0 80 -390 0 -390 0 0 -288z"/>
<path d="M4045 1877 c-3 -6 -4 -167 -3 -357 l3 -345 115 0 115 0 5 83 c7 114
3 112 205 112 202 0 198 2 205 -112 l5 -83 98 -3 97 -3 0 104 c0 68 -5 119
-16 149 -15 46 -15 47 15 103 26 49 31 69 31 127 0 74 -12 106 -61 169 -54 69
-56 69 -453 69 -277 0 -358 -3 -361 -13z m624 -171 c17 -15 21 -31 21 -79 0
-96 -1 -97 -203 -97 -205 0 -207 1 -207 95 0 62 10 83 50 98 8 3 83 5 166 4
134 -2 155 -4 173 -21z"/>
<path d="M5020 1810 l0 -80 108 0 c59 0 124 -3 144 -6 l38 -7 2 -271 3 -271
110 0 110 0 3 271 2 271 47 7 c25 3 90 6 145 6 l99 0 -3 78 -3 77 -402 3 -403
2 0 -80z"/>
<path d="M6065 1876 c-38 -17 -87 -69 -114 -121 -20 -38 -21 -55 -21 -312 l0
-273 115 0 115 0 0 100 0 100 210 0 210 0 0 -100 0 -100 115 0 116 0 -3 278
-3 279 -30 48 c-16 26 -47 62 -68 79 l-39 31 -286 2 c-226 2 -293 0 -317 -11z
m486 -175 c27 -27 29 -35 29 -100 l0 -71 -210 0 -210 0 0 71 c0 77 10 106 43
119 12 5 89 9 170 9 l149 1 29 -29z"/>
<path d="M6970 1530 l0 -360 110 0 110 0 0 360 0 360 -110 0 -110 0 0 -360z"/>
<path d="M7325 1878 c-3 -7 -4 -168 -3 -358 l3 -345 113 -3 112 -3 0 233 c0
130 5 250 10 270 15 54 47 60 262 56 154 -3 180 -5 195 -21 16 -16 19 -45 23
-275 l5 -257 110 0 110 0 3 258 c1 161 -2 274 -8 298 -6 22 -27 58 -47 80 -69
76 -52 74 -491 77 -316 2 -393 1 -397 -10z"/>
<path d="M8430 1530 l0 -361 113 3 112 3 3 256 c3 309 -4 294 128 294 73 0 86
-3 106 -23 23 -22 23 -27 26 -278 l3 -255 112 3 112 3 3 256 c3 309 -4 294
127 294 131 0 124 15 127 -294 l3 -256 110 0 110 0 3 258 c1 161 -2 274 -8
298 -6 22 -27 58 -47 80 -70 78 -36 74 -620 77 l-523 3 0 -361z"/>
<path d="M9792 1588 c3 -302 3 -303 27 -337 13 -18 45 -43 70 -55 43 -20 65
-21 364 -24 l317 -3 0 80 0 81 -273 0 c-253 0 -275 1 -290 18 -24 26 -21 67 5
92 21 19 34 20 275 20 l253 0 0 70 0 70 -253 0 c-278 0 -297 4 -297 58 1 67
24 72 326 72 l254 0 0 80 0 80 -390 0 -391 0 3 -302z"/>
<path d="M10700 1530 l0 -360 115 0 115 0 0 254 c0 235 1 256 19 277 19 23 24
24 192 27 197 4 231 0 259 -30 19 -21 20 -36 20 -275 l0 -253 110 0 110 0 0
280 c0 260 -1 284 -20 319 -27 54 -84 98 -142 111 -29 6 -198 10 -413 10
l-365 0 0 -360z"/>
<path d="M11777 1883 c-4 -3 -7 -39 -7 -79 l0 -72 139 -4 c77 -2 143 -7 148
-12 4 -4 9 -129 11 -277 l3 -270 107 3 107 3 5 270 5 270 30 6 c17 4 81 7 143
8 l112 1 0 80 0 80 -398 0 c-219 0 -402 -3 -405 -7z"/>
<path d="M7192 617 l3 -304 27 -35 c54 -71 64 -73 431 -76 l327 -3 0 76 0 75
-274 0 -275 0 -20 26 c-26 33 -27 58 -1 84 19 19 33 20 275 20 l255 0 0 75 0
75 -258 0 c-238 0 -260 1 -275 18 -23 25 -21 58 3 82 19 19 33 20 295 20 l275
0 0 85 0 85 -396 0 -395 0 3 -303z"/>
<path d="M3603 891 c-109 -50 -143 -98 -143 -199 0 -66 2 -74 32 -107 17 -20
54 -50 82 -66 l51 -29 221 0 c208 0 221 -1 242 -20 31 -29 32 -62 5 -92 -15
-16 -43 -18 -325 -18 l-308 0 0 -80 0 -81 353 3 352 3 48 34 c71 52 87 84 87
173 0 74 -1 76 -41 122 -70 80 -73 80 -337 86 -231 5 -234 5 -253 29 -24 29
-24 43 0 72 l19 24 306 3 306 3 0 79 0 80 -327 0 c-301 0 -331 -2 -370 -19z"/>
<path d="M4374 896 c-3 -8 -4 -88 -2 -179 l3 -165 31 -39 c57 -71 85 -83 190
-83 l94 0 0 -115 0 -115 115 0 114 0 3 113 3 112 100 5 c113 6 138 17 186 84
l29 39 0 179 0 178 -110 0 -110 0 0 -140 c0 -190 12 -180 -209 -180 -222 0
-210 -10 -213 175 l-3 140 -108 3 c-86 2 -108 0 -113 -12z"/>
<path d="M5473 885 c-28 -14 -70 -46 -92 -70 -39 -43 -41 -47 -41 -111 0 -76
19 -115 75 -158 69 -53 88 -56 320 -56 216 0 216 0 240 -25 30 -29 31 -45 4
-79 l-20 -26 -310 0 -309 0 0 -80 0 -80 348 0 348 0 46 29 c25 16 58 46 74 67
26 33 29 46 29 108 0 86 -20 125 -92 177 l-48 34 -230 5 c-126 3 -238 9 -247
14 -39 18 -34 85 7 104 18 8 117 12 321 12 l295 0 -3 78 -3 77 -330 3 -331 2
-51 -25z"/>
<path d="M6290 830 l0 -79 143 -3 142 -3 3 -272 2 -273 110 0 110 0 0 263 c0
191 3 266 12 275 8 8 55 12 145 12 l133 0 0 80 0 80 -400 0 -400 0 0 -80z"/>
<path d="M8130 555 l0 -355 120 0 120 0 0 258 c0 310 -8 292 123 292 133 0
127 15 127 -295 l0 -255 115 0 114 0 3 254 c4 310 -3 296 128 296 78 0 89 -2
108 -23 21 -23 22 -30 22 -275 l0 -252 110 0 110 0 0 284 0 284 -32 48 c-20
29 -50 57 -77 71 l-44 23 -524 0 -523 0 0 -355z"/>
</g>
</svg>
