<?xml version="1.0" standalone="no"?>
<!DOCTYPE svg PUBLIC "-//W3C//DTD SVG 20010904//EN"
 "http://www.w3.org/TR/2001/REC-SVG-20010904/DTD/svg10.dtd">
<svg version="1.0" xmlns="http://www.w3.org/2000/svg"
 width="866.000000pt" height="650.000000pt" viewBox="0 0 866.000000 650.000000"
 preserveAspectRatio="xMidYMid meet">

<g transform="translate(0.000000,650.000000) scale(0.100000,-0.100000)"
fill="#000000" stroke="none">
<path d="M1202 3313 l3 -757 165 -53 c91 -29 166 -53 168 -53 1 0 2 290 2 644
0 436 3 653 11 674 13 37 37 47 72 31 48 -22 52 -43 55 -350 l3 -287 56 -17
c80 -25 163 -16 212 23 74 59 99 117 108 248 11 161 -34 301 -126 387 -62 58
-163 109 -316 159 -121 40 -373 108 -400 108 -13 0 -15 -98 -13 -757z"/>
<path d="M3232 3648 l3 -53 591 -5 c574 -5 593 -6 614 -25 32 -29 50 -77 50
-135 0 -67 -21 -115 -62 -140 -32 -19 -49 -20 -509 -20 -515 0 -524 -1 -595
-55 -18 -14 -45 -51 -61 -82 -27 -57 -28 -63 -31 -251 l-4 -193 109 3 108 3 5
185 c4 160 8 189 25 217 38 63 35 63 547 63 307 0 476 4 503 11 113 32 180
127 180 259 0 135 -65 227 -185 260 -21 6 -283 10 -663 10 l-628 0 3 -52z"/>
<path d="M5597 3686 c-53 -19 -100 -54 -127 -93 -43 -63 -50 -118 -50 -411 0
-304 -4 -326 -62 -362 -31 -19 -50 -20 -365 -20 l-333 0 0 -55 0 -55 373 0
c421 0 448 3 518 67 83 75 83 78 89 433 5 326 6 336 50 375 21 19 41 20 349
25 l326 5 3 53 3 52 -368 0 c-283 -1 -377 -4 -406 -14z"/>
<path d="M7543 3673 c-28 -16 -319 -194 -648 -398 -400 -248 -601 -378 -610
-395 -11 -21 -7 -61 7 -72 2 -1 273 -5 603 -8 l600 -5 3 -52 3 -53 104 0 104
0 3 53 3 52 108 3 108 3 -3 52 -3 52 -107 3 -108 3 0 370 0 370 -25 24 c-32
33 -79 32 -142 -2z m-43 -469 l0 -294 -480 0 c-264 0 -480 3 -480 8 1 4 107
72 237 152 129 80 283 175 342 211 58 36 165 102 236 146 72 44 133 79 138 76
4 -2 7 -137 7 -299z"/>
<path d="M905 3078 c-289 -102 -370 -135 -427 -172 -75 -48 -84 -100 -26 -153
80 -75 356 -130 558 -112 47 4 93 8 103 8 15 1 17 12 17 91 0 50 -2 90 -5 90
-2 0 -47 -16 -99 -34 -53 -19 -122 -38 -153 -41 -73 -9 -143 8 -143 34 0 22
14 29 220 103 91 32 169 63 173 67 4 4 6 50 5 102 l-3 94 -220 -77z"/>
<path d="M1805 3056 c-38 -7 -98 -21 -132 -31 l-63 -18 0 -104 c0 -96 2 -105
18 -98 109 43 396 137 436 141 54 6 130 -9 142 -28 14 -22 -37 -45 -315 -144
l-281 -99 0 -97 c0 -54 4 -98 9 -98 24 0 783 281 818 303 52 33 73 63 73 103
0 60 -80 108 -260 156 -97 26 -342 34 -445 14z"/>
<path d="M8035 2800 c-3 -5 3 -10 14 -10 18 0 21 -6 21 -51 0 -31 4 -48 10
-44 6 3 10 26 10 51 0 32 4 44 15 44 8 0 15 5 15 10 0 6 -18 10 -39 10 -22 0
-43 -4 -46 -10z"/>
<path d="M8137 2803 c-8 -15 -5 -103 4 -109 5 -3 9 12 10 33 l1 38 15 -37 c9
-21 19 -38 24 -38 4 0 13 17 20 38 l14 37 6 -40 c5 -35 6 -33 8 23 1 70 -11
81 -29 25 -18 -56 -25 -58 -39 -14 -12 40 -26 58 -34 44z"/>
<path d="M2342 2567 c-46 -49 -12 -127 55 -127 46 0 77 30 77 75 0 69 -85 102
-132 52z m98 -7 c39 -39 11 -110 -44 -110 -25 0 -66 41 -66 67 0 21 46 63 70
63 11 0 29 -9 40 -20z"/>
<path d="M2360 2516 c0 -25 5 -46 10 -46 6 0 10 9 10 20 0 27 28 25 40 -2 8
-19 9 -14 7 22 -2 43 -4 45 -34 48 -33 3 -33 3 -33 -42z m55 24 c3 -6 -1 -13
-10 -16 -19 -8 -30 0 -20 15 8 14 22 14 30 1z"/>
</g>
</svg>
