<?xml version="1.0" standalone="no"?>
<!DOCTYPE svg PUBLIC "-//W3C//DTD SVG 20010904//EN"
 "http://www.w3.org/TR/2001/REC-SVG-20010904/DTD/svg10.dtd">
<svg version="1.0" xmlns="http://www.w3.org/2000/svg"
 width="1280.000000pt" height="537.000000pt" viewBox="0 0 1280.000000 537.000000"
 preserveAspectRatio="xMidYMid meet">

<g transform="translate(0.000000,537.000000) scale(0.100000,-0.100000)"
fill="#000000" stroke="none">
<path d="M373 4993 c-10 -3 -13 -41 -13 -139 l0 -134 1488 -2 c1412 -3 1489
-4 1534 -21 168 -66 254 -289 204 -528 -28 -129 -97 -218 -202 -260 l-59 -24
-1245 -5 -1245 -5 -63 -26 c-196 -83 -313 -213 -383 -424 -23 -69 -24 -80 -27
-537 l-3 -468 275 0 276 0 0 413 c0 439 6 500 50 587 33 64 104 135 163 161
l52 24 1210 5 c1357 6 1252 0 1423 82 149 70 260 204 314 378 20 66 23 95 22
235 0 146 -2 167 -27 240 -37 112 -91 197 -169 270 -117 108 -247 159 -452
175 -113 10 -3101 13 -3123 3z"/>
<path d="M6413 4990 c-309 -26 -528 -197 -610 -475 -15 -54 -18 -135 -23 -790
-5 -721 -6 -731 -28 -795 -43 -125 -121 -198 -241 -226 -44 -11 -212 -14 -773
-14 l-718 0 0 -135 0 -136 883 3 882 3 75 23 c223 69 370 211 441 427 23 70
23 72 29 805 5 709 6 737 26 796 38 110 106 186 204 225 29 11 174 15 790 19
l755 5 3 129 c2 97 -1 131 -10 138 -16 10 -1559 8 -1685 -2z"/>
<path d="M8652 4988 c-14 -14 -17 -235 -4 -255 6 -10 329 -13 1493 -15 l1484
-3 67 -33 c37 -18 79 -47 94 -65 77 -91 115 -250 95 -398 -15 -112 -51 -188
-118 -249 -100 -92 41 -84 -1638 -90 l-1480 -5 -3 -110 c-2 -60 0 -120 3 -132
l5 -23 1463 0 c1314 0 1469 -2 1517 -16 149 -44 229 -164 251 -379 25 -233
-42 -415 -179 -484 -81 -41 -90 -41 -1596 -41 -1317 0 -1454 -1 -1460 -16 -9
-23 -7 -227 2 -242 7 -10 328 -12 1623 -10 l1614 3 80 25 c233 74 389 236 452
470 27 98 24 356 -6 465 -29 110 -88 228 -149 302 -29 34 -52 65 -52 69 0 3
27 35 59 70 116 124 165 265 165 474 0 158 -14 224 -75 349 -100 204 -294 319
-574 341 -189 15 -3118 13 -3133 -2z"/>
<path d="M5220 1589 c-81 -13 -178 -65 -217 -117 -89 -118 -60 -284 62 -353
28 -15 120 -47 205 -70 173 -46 199 -57 229 -95 44 -56 16 -151 -55 -188 -31
-17 -58 -21 -129 -21 -77 0 -96 3 -135 25 -52 29 -88 78 -96 132 l-7 38 -80 0
-80 0 6 -54 c10 -99 73 -189 165 -234 59 -30 130 -44 227 -43 225 0 366 109
367 284 0 76 -23 137 -73 185 -48 48 -66 55 -244 102 -88 23 -172 48 -187 56
-39 20 -58 53 -58 100 0 85 79 132 200 121 94 -8 154 -54 169 -128 l7 -34 83
-3 83 -3 -7 48 c-12 83 -56 151 -124 195 -81 51 -206 74 -311 57z"/>
<path d="M2410 1101 l0 -471 80 0 80 0 0 179 0 179 183 4 c164 3 187 6 234 27
59 26 114 81 139 138 26 57 24 195 -2 253 -26 57 -76 107 -134 134 -41 19 -66
21 -312 24 l-268 3 0 -470z m506 317 c45 -25 67 -77 62 -150 -4 -51 -9 -64
-39 -93 -43 -44 -106 -57 -256 -53 l-108 3 -3 145 c-1 79 0 150 3 158 8 22
299 13 341 -10z"/>
<path d="M3250 1100 l0 -470 75 0 75 0 0 470 0 470 -75 0 -75 0 0 -470z"/>
<path d="M7460 1500 l0 -70 75 0 75 0 0 70 0 70 -75 0 -75 0 0 -70z"/>
<path d="M9959 1557 c-61 -23 -108 -57 -138 -100 -33 -49 -61 -125 -61 -167
l0 -30 75 0 75 0 0 30 c0 71 58 143 126 156 50 9 121 -20 145 -60 25 -40 24
-102 -1 -144 -23 -37 -67 -59 -135 -69 l-45 -6 0 -52 0 -52 65 -6 c35 -3 82
-15 103 -26 103 -53 94 -219 -15 -272 -56 -27 -149 -23 -191 7 -33 24 -72 98
-72 136 l0 28 -76 0 -77 0 6 -50 c13 -109 77 -200 171 -241 67 -30 206 -33
283 -6 62 22 136 84 166 141 31 59 31 184 -1 243 -22 43 -69 85 -111 101 -22
8 -22 9 17 34 52 35 82 97 82 171 0 98 -44 168 -134 214 -62 32 -197 42 -257
20z"/>
<path d="M5857 1514 c-4 -4 -7 -52 -7 -106 l0 -98 -55 0 -55 0 0 -55 0 -55 54
0 54 0 4 -237 c4 -264 9 -288 70 -319 37 -19 131 -29 182 -20 l36 7 0 54 0 55
-49 0 c-81 0 -81 -1 -81 246 l0 214 65 0 65 0 0 55 0 55 -65 0 -64 0 -3 103
-3 102 -70 3 c-39 1 -74 0 -78 -4z"/>
<path d="M7040 1415 l0 -105 -55 0 -55 0 0 -55 0 -55 54 0 55 0 3 -244 c3
-230 4 -246 24 -273 11 -15 33 -34 47 -41 36 -18 116 -26 171 -18 l46 7 0 55
0 54 -50 0 c-37 0 -55 5 -70 20 -19 19 -20 33 -20 230 l0 210 70 0 70 0 0 55
0 55 -70 0 -70 0 0 105 0 105 -75 0 -75 0 0 -105z"/>
<path d="M3747 1319 c-104 -25 -178 -97 -188 -184 l-4 -30 71 -3 72 -3 18 38
c27 55 72 75 154 70 74 -5 104 -19 121 -59 16 -38 4 -75 -29 -92 -15 -7 -78
-21 -141 -30 -145 -21 -181 -32 -227 -69 -99 -82 -83 -242 30 -312 46 -28 56
-30 145 -30 98 1 167 21 212 61 16 14 18 13 31 -12 22 -48 82 -65 167 -48 30
6 31 8 31 60 0 53 -1 54 -29 54 -17 0 -31 6 -35 16 -3 9 -6 108 -6 220 0 230
-5 252 -65 301 -66 55 -216 78 -328 52z m226 -512 c-25 -43 -94 -77 -155 -77
-112 0 -165 59 -124 139 19 36 53 50 165 67 51 8 101 19 110 24 25 14 29 -110
4 -153z"/>
<path d="M6447 1319 c-90 -21 -156 -75 -182 -148 -25 -71 -24 -71 60 -71 63 0
77 3 81 18 17 56 57 84 127 90 95 8 160 -28 160 -88 0 -61 -21 -70 -230 -103
-120 -19 -176 -46 -208 -101 -27 -47 -34 -131 -14 -183 39 -103 189 -150 336
-104 37 11 79 30 93 40 l24 19 18 -29 c27 -45 84 -59 167 -43 30 6 31 8 31 60
0 52 0 53 -32 56 l-33 3 -5 225 c-6 251 -11 271 -80 318 -70 47 -210 65 -313
41z m226 -507 c-27 -55 -90 -84 -170 -80 -80 5 -117 30 -121 81 -6 73 32 101
167 122 47 7 97 18 111 23 25 9 25 9 28 -50 2 -42 -2 -70 -15 -96z"/>
<path d="M7960 1316 c-96 -25 -173 -97 -212 -195 -30 -79 -30 -223 1 -302 48
-123 152 -198 287 -207 157 -10 271 49 334 172 34 67 35 72 35 186 0 114 -1
119 -35 186 -42 82 -105 134 -190 158 -66 19 -156 20 -220 2z m195 -129 c75
-43 110 -125 103 -242 -10 -148 -93 -229 -218 -212 -102 13 -164 103 -163 236
0 85 18 139 61 185 56 59 146 73 217 33z"/>
<path d="M8785 1307 c-28 -13 -65 -40 -83 -61 l-32 -37 0 51 0 50 -70 0 -70 0
0 -340 0 -340 75 0 75 0 0 223 c0 211 1 225 23 267 33 65 66 85 142 85 53 0
67 -4 89 -24 14 -14 30 -41 36 -60 5 -20 10 -138 10 -263 l0 -228 75 0 75 0 0
259 c0 166 -4 270 -11 292 -31 91 -102 140 -214 146 -58 3 -78 0 -120 -20z"/>
<path d="M4210 1305 c0 -3 57 -155 126 -338 125 -329 126 -332 115 -377 -23
-88 -61 -116 -138 -106 l-43 6 0 -65 0 -65 82 0 c129 0 184 37 236 161 11 25
79 207 152 405 73 197 135 365 137 372 4 9 -15 12 -75 12 l-80 0 -84 -250
c-45 -137 -85 -250 -88 -250 -3 0 -36 89 -74 198 -38 108 -78 221 -88 250
l-19 52 -80 0 c-43 0 -79 -2 -79 -5z"/>
<path d="M7460 970 l0 -340 75 0 75 0 0 340 0 340 -75 0 -75 0 0 -340z"/>
</g>
</svg>
