<?xml version="1.0" standalone="no"?>
<!DOCTYPE svg PUBLIC "-//W3C//DTD SVG 20010904//EN"
 "http://www.w3.org/TR/2001/REC-SVG-20010904/DTD/svg10.dtd">
<svg version="1.0" xmlns="http://www.w3.org/2000/svg"
 width="1200.000000pt" height="368.000000pt" viewBox="0 0 1200.000000 368.000000"
 preserveAspectRatio="xMidYMid meet">

<g transform="translate(0.000000,368.000000) scale(0.100000,-0.100000)"
fill="#000000" stroke="none">
<path d="M0 3610 l0 -70 1690 0 1690 0 0 -380 0 -380 -1690 0 -1690 0 0 -520
0 -520 70 0 70 0 0 450 0 450 1685 0 1685 0 0 520 0 520 -1755 0 -1755 0 0
-70z"/>
<path d="M5308 2778 l-3 -903 -897 -3 -898 -2 0 -65 0 -65 970 0 970 0 0 900
0 900 898 2 897 3 3 68 3 67 -970 0 -971 0 -2 -902z"/>
<path d="M7770 3610 l0 -70 1685 0 1685 0 0 -380 0 -380 -1685 0 -1685 0 0
-520 0 -520 65 0 65 0 2 448 3 447 1688 3 1687 2 0 520 0 520 -1755 0 -1755 0
0 -70z"/>
<path d="M11577 1964 c-16 -16 -5 -24 33 -24 l40 0 0 -105 c0 -87 3 -105 15
-105 12 0 15 18 15 105 l0 105 41 0 c28 0 39 4 37 13 -5 13 -168 23 -181 11z"/>
<path d="M11784 1957 c-2 -7 -3 -60 -2 -118 2 -84 6 -104 18 -104 12 0 16 18
20 78 l5 77 28 -80 c17 -47 34 -80 42 -80 8 0 25 34 42 87 l28 86 5 -83 c3
-54 9 -85 18 -88 9 -3 12 25 12 117 0 112 -1 121 -19 121 -15 0 -26 -20 -52
-94 -19 -52 -36 -93 -39 -91 -3 2 -19 44 -35 94 -22 71 -33 91 -47 91 -10 0
-21 -6 -24 -13z"/>
<path d="M3515 766 c-22 -9 -54 -31 -72 -50 -43 -46 -51 -95 -27 -155 24 -57
64 -81 183 -111 134 -33 166 -60 163 -137 -2 -46 -27 -79 -73 -97 -103 -42
-214 3 -239 95 -9 33 -15 39 -37 39 -24 0 -25 -2 -20 -40 15 -116 136 -180
280 -150 94 19 147 78 147 165 0 95 -42 133 -185 170 -149 39 -175 58 -175
127 0 66 57 108 145 108 75 0 145 -51 145 -106 0 -19 5 -24 26 -24 25 0 26 2
21 40 -7 51 -37 93 -84 116 -50 24 -147 28 -198 10z"/>
<path d="M1870 465 l0 -295 30 0 30 0 0 129 0 128 109 5 c129 5 191 29 223 88
25 46 21 138 -8 178 -39 53 -74 62 -236 62 l-148 0 0 -295z m297 232 c41 -22
53 -44 53 -99 0 -88 -49 -118 -195 -118 l-95 0 0 121 0 122 103 -5 c68 -3 113
-10 134 -21z"/>
<path d="M2360 465 l0 -295 25 0 25 0 0 295 0 295 -25 0 -25 0 0 -295z"/>
<path d="M4890 725 c0 -32 2 -35 30 -35 28 0 30 3 30 35 0 32 -2 35 -30 35
-28 0 -30 -3 -30 -35z"/>
<path d="M6280 465 l0 -295 30 0 30 0 0 129 0 128 108 5 c179 8 242 52 242
169 0 42 -6 65 -23 90 -39 59 -73 69 -239 69 l-148 0 0 -295z m260 244 c80
-18 115 -77 90 -153 -19 -57 -49 -70 -177 -74 l-113 -4 0 121 0 121 78 0 c42
0 97 -5 122 -11z"/>
<path d="M8210 465 l0 -295 25 0 c22 0 25 4 25 37 0 37 0 37 16 15 44 -63 164
-81 239 -37 58 33 78 79 83 183 4 73 1 88 -22 137 -36 73 -80 100 -163 100
-53 0 -67 -4 -107 -32 l-46 -33 0 110 0 110 -25 0 -25 0 0 -295z m281 68 c42
-36 59 -79 59 -155 0 -114 -50 -173 -147 -173 -50 0 -57 3 -88 37 -58 62 -69
160 -28 245 35 75 141 99 204 46z"/>
<path d="M8720 465 l0 -295 25 0 25 0 0 295 0 295 -25 0 -25 0 0 -295z"/>
<path d="M3950 660 l0 -60 -30 0 c-23 0 -30 -4 -30 -20 0 -16 7 -20 30 -20
l30 0 0 -178 c0 -213 3 -222 81 -222 45 0 49 2 49 25 0 18 -4 23 -15 19 -8 -4
-26 -3 -40 0 l-25 6 0 175 0 175 40 0 c33 0 40 3 40 20 0 17 -7 20 -40 20
l-40 0 0 60 c0 57 -1 60 -25 60 -24 0 -25 -3 -25 -60z"/>
<path d="M4667 713 c-4 -3 -7 -30 -7 -59 0 -50 -1 -53 -27 -56 -17 -2 -29 -10
-31 -20 -3 -14 3 -18 27 -18 l31 0 0 -157 c0 -180 9 -230 44 -239 41 -10 91 0
94 19 3 14 -4 17 -33 17 -50 0 -56 23 -53 204 l3 151 38 3 c29 3 37 7 37 23 0
16 -7 19 -40 19 l-40 0 0 60 c0 52 -3 60 -18 60 -10 0 -22 -3 -25 -7z"/>
<path d="M7527 713 c-4 -3 -7 -30 -7 -59 0 -50 -1 -53 -27 -56 -17 -2 -29 -10
-31 -20 -3 -14 3 -18 27 -18 l31 0 0 -164 c0 -177 9 -223 45 -232 40 -10 90 0
93 19 3 13 -4 17 -32 17 -52 0 -57 17 -54 197 l3 158 38 3 c29 3 37 7 37 23 0
16 -7 19 -40 19 l-40 0 0 60 c0 52 -3 60 -18 60 -10 0 -22 -3 -25 -7z"/>
<path d="M2627 596 c-46 -17 -64 -32 -83 -67 -21 -42 -18 -59 11 -59 16 0 25
6 25 16 0 8 13 29 29 45 26 26 36 29 91 29 51 0 65 -4 85 -25 25 -24 33 -68
17 -93 -5 -7 -50 -19 -102 -28 -51 -8 -108 -22 -127 -31 -83 -39 -84 -166 -1
-209 48 -25 145 -16 197 19 31 21 41 24 41 12 0 -20 44 -47 72 -43 32 4 38 45
6 44 -23 -1 -23 0 -28 159 -5 169 -11 190 -56 220 -35 23 -129 29 -177 11z
m183 -251 c0 -85 -41 -129 -133 -141 -78 -11 -130 35 -113 100 9 36 49 56 138
67 46 6 85 12 87 15 14 13 21 -1 21 -41z"/>
<path d="M4275 598 c-40 -14 -75 -46 -91 -85 -18 -42 -18 -43 12 -43 19 0 28
7 36 30 13 39 54 60 116 60 68 0 102 -27 102 -81 0 -47 -7 -51 -123 -68 -119
-17 -165 -48 -173 -118 -9 -76 51 -133 143 -133 52 0 123 26 138 50 10 17 25
11 25 -10 0 -26 40 -45 75 -36 30 8 32 41 2 41 -31 0 -37 27 -37 177 0 143 -1
147 -26 177 -39 46 -128 64 -199 39z m175 -262 c0 -66 -22 -98 -85 -122 -85
-32 -155 -2 -155 67 0 44 32 75 84 83 25 4 109 18 149 25 4 0 7 -23 7 -53z"/>
<path d="M5178 601 c-46 -15 -87 -51 -111 -94 -17 -33 -22 -59 -22 -122 0 -94
20 -141 79 -189 35 -29 44 -31 116 -31 72 0 81 2 116 31 49 39 75 90 81 161 9
99 -28 187 -94 226 -37 21 -125 31 -165 18z m157 -71 c32 -30 48 -82 48 -152
-1 -102 -50 -166 -134 -175 -89 -10 -152 66 -151 182 1 122 52 179 154 172 43
-2 64 -9 83 -27z"/>
<path d="M5640 599 c-14 -6 -37 -22 -52 -36 l-28 -27 0 32 c0 27 -4 32 -25 32
l-25 0 0 -215 0 -215 25 0 25 0 0 145 c0 158 7 185 56 224 39 31 114 29 151
-3 l28 -24 3 -171 3 -171 25 0 24 0 0 169 c0 158 -1 170 -23 202 -39 59 -120
84 -187 58z"/>
<path d="M6835 591 c-80 -37 -115 -101 -115 -210 0 -137 76 -221 198 -221 119
0 192 86 192 224 0 48 -7 84 -19 111 -46 100 -157 142 -256 96z m150 -43 c66
-30 97 -170 57 -260 -24 -55 -57 -79 -115 -85 -85 -8 -143 48 -154 151 -13
122 43 206 137 206 27 0 61 -5 75 -12z"/>
<path d="M7323 603 c-12 -2 -36 -20 -53 -39 l-30 -35 0 36 c0 31 -3 35 -25 35
l-25 0 0 -215 0 -215 25 0 25 0 0 138 c1 187 20 229 115 244 13 2 21 12 23 31
3 28 -2 30 -55 20z"/>
<path d="M7839 600 c-46 -14 -77 -40 -93 -81 -20 -50 -21 -49 9 -49 19 0 28 8
39 35 17 41 47 55 115 55 67 0 101 -27 101 -81 0 -47 -7 -51 -123 -68 -123
-18 -166 -49 -174 -124 -5 -40 -2 -49 29 -82 27 -30 43 -38 80 -42 63 -7 109
3 152 32 44 30 46 30 46 5 0 -26 40 -45 75 -36 31 8 32 43 1 38 -11 -2 -23 2
-27 10 -5 7 -9 81 -9 165 0 148 -1 152 -26 182 -37 45 -124 63 -195 41z m171
-266 c0 -48 -4 -60 -28 -84 -35 -35 -98 -55 -145 -46 -101 19 -89 144 16 160
26 4 110 18 150 25 4 0 7 -24 7 -55z"/>
<path d="M8980 588 c-26 -14 -57 -41 -75 -66 -25 -37 -30 -55 -34 -119 -4 -88
9 -139 46 -184 35 -41 79 -59 148 -59 82 0 131 31 169 108 l17 32 -30 0 c-20
0 -32 -6 -35 -18 -4 -10 -19 -31 -35 -46 -38 -37 -102 -45 -151 -19 -39 20
-80 84 -80 126 l0 27 165 0 165 0 0 28 c0 54 -29 127 -63 160 -57 56 -134 67
-207 30z m150 -43 c32 -17 53 -51 65 -102 l7 -33 -141 0 c-156 0 -154 -1 -127
63 22 53 70 87 122 87 25 0 58 -7 74 -15z"/>
<path d="M2940 598 c0 -2 38 -100 84 -218 83 -213 83 -215 69 -254 -19 -56
-40 -76 -80 -76 -30 0 -34 -3 -31 -22 2 -18 11 -24 36 -26 44 -4 77 18 103 70
24 46 199 504 199 519 0 5 -11 9 -24 9 -21 0 -28 -12 -61 -102 -77 -210 -98
-259 -105 -251 -4 4 -36 86 -71 181 -61 166 -65 172 -91 172 -16 0 -28 -1 -28
-2z"/>
<path d="M4900 386 l0 -216 25 0 25 0 -2 213 c-3 211 -3 212 -25 215 l-23 3 0
-215z"/>
<path d="M5984 360 c-60 -24 -73 -112 -25 -161 40 -40 89 -40 133 0 84 75 -2
204 -108 161z m104 -32 c25 -24 30 -82 9 -109 -35 -46 -88 -50 -128 -10 -83
84 32 199 119 119z"/>
<path d="M5991 263 c1 -41 3 -50 8 -33 10 36 38 38 53 3 9 -22 12 -24 15 -10
3 10 0 24 -6 31 -7 9 -7 16 1 24 20 20 1 42 -37 42 l-35 0 1 -57z m57 30 c-2
-10 -12 -18 -23 -18 -11 0 -21 8 -23 18 -3 13 3 17 23 17 20 0 26 -4 23 -17z"/>
</g>
</svg>
