<?xml version="1.0" standalone="no"?>
<!DOCTYPE svg PUBLIC "-//W3C//DTD SVG 20010904//EN"
 "http://www.w3.org/TR/2001/REC-SVG-20010904/DTD/svg10.dtd">
<svg version="1.0" xmlns="http://www.w3.org/2000/svg"
 width="320.000000pt" height="76.000000pt" viewBox="0 0 320.000000 76.000000"
 preserveAspectRatio="xMidYMid meet">

<g transform="translate(0.000000,76.000000) scale(0.100000,-0.100000)"
fill="#000000" stroke="none">
<path d="M1238 743 c-8 -10 -45 -62 -83 -115 l-68 -98 -438 0 -437 0 -106 -61
-106 -61 0 -138 0 -138 115 -66 114 -66 1370 0 1370 0 115 67 116 67 0 131 c0
153 10 137 -126 213 l-91 52 -445 0 -445 0 -79 115 -79 114 -341 1 c-313 0
-342 -1 -356 -17z m752 -131 l76 -107 454 -5 455 -5 88 -53 88 -53 -3 -122 -3
-121 -90 -52 -90 -53 -1363 -1 -1364 0 -94 52 -94 53 0 125 0 125 93 53 94 52
439 0 439 1 75 109 75 109 325 0 325 0 75 -107z"/>
<path d="M1822 692 c-6 -5 -25 -46 -41 -93 l-29 -84 -2 55 c-1 30 -1 63 0 73
1 16 -5 18 -52 15 l-53 -3 -3 -62 -3 -63 36 0 c32 0 35 2 35 30 0 24 -4 30
-21 30 -16 0 -20 -5 -16 -20 3 -11 1 -18 -4 -14 -5 3 -8 22 -8 42 1 20 3 29 6
20 3 -11 14 -18 29 -18 21 0 24 -4 24 -41 l0 -40 -42 3 -43 3 -3 64 c-4 75 2
81 71 81 26 0 47 5 47 10 0 6 -28 10 -65 10 -78 0 -85 -9 -85 -104 0 -82 16
-96 107 -96 48 0 64 4 72 18 10 16 10 16 11 0 0 -25 21 -23 27 2 4 15 14 20
39 20 19 0 34 2 34 3 0 2 -9 30 -20 62 -11 32 -20 63 -19 69 1 12 49 -122 49
-136 0 -4 -16 -8 -36 -8 -24 0 -34 -4 -32 -12 5 -15 108 -24 108 -10 0 4 -14
48 -30 97 -34 101 -51 120 -88 97z m9 -53 c-5 -13 -10 -19 -10 -12 -1 15 10
45 15 40 3 -2 0 -15 -5 -28z"/>
<path d="M1277 672 c-18 -20 -22 -59 -8 -80 4 -7 26 -20 47 -27 l39 -14 -47
-1 c-27 0 -48 -4 -48 -10 0 -16 96 -12 110 5 18 21 -4 45 -41 45 -19 0 -32 7
-40 23 -12 21 -11 21 8 5 11 -10 29 -18 41 -18 21 0 52 -24 52 -40 0 -23 -34
-40 -81 -40 -37 0 -49 -4 -49 -15 0 -11 12 -15 46 -15 70 0 104 23 104 71 0
32 -25 56 -65 62 -21 3 -16 4 18 6 34 1 47 5 47 16 0 19 -89 21 -110 3 -12
-11 -12 -10 -1 5 10 12 27 17 62 17 27 0 49 5 49 10 0 6 -26 10 -58 10 -44 0
-63 -5 -75 -18z"/>
<path d="M1452 678 c-7 -7 -12 -41 -12 -84 0 -64 3 -75 22 -88 30 -21 118 -22
118 -1 0 11 -12 15 -48 15 -26 0 -53 5 -60 12 -7 7 -12 35 -12 63 0 28 5 56
12 63 7 7 34 12 60 12 26 0 48 5 48 10 0 14 -114 12 -128 -2z"/>
<path d="M1477 653 c-4 -3 -7 -17 -7 -30 0 -21 5 -23 45 -23 33 0 45 4 45 15
0 8 5 15 10 15 6 0 10 7 10 15 0 11 -12 15 -48 15 -27 0 -52 -3 -55 -7z"/>
<path d="M1472 563 c3 -26 7 -28 56 -31 42 -2 52 0 52 12 0 9 -4 16 -10 16 -5
0 -10 7 -10 15 0 11 -12 15 -46 15 -44 0 -45 -1 -42 -27z"/>
<path d="M283 373 l-53 -36 0 -108 0 -109 152 0 151 0 49 31 48 31 0 59 0 59
-72 0 c-63 0 -77 -4 -122 -32 l-51 -33 63 -3 c54 -3 62 -6 62 -22 0 -18 -7
-20 -80 -20 l-80 0 0 75 0 75 111 0 c107 0 112 1 155 30 24 17 44 33 44 35 0
3 -73 5 -162 4 l-163 0 -52 -36z"/>
<path d="M723 377 l-52 -32 -1 -112 0 -113 147 0 146 0 51 32 51 33 -138 3
c-129 2 -137 4 -137 22 0 18 7 20 61 20 52 0 67 5 107 33 l47 32 -107 3 c-100
2 -108 4 -108 22 0 18 7 20 91 20 84 0 93 2 135 30 24 17 44 33 44 35 0 3 -64
5 -142 5 l-143 -1 -52 -32z"/>
<path d="M1100 265 l0 -145 60 0 59 0 3 95 3 95 78 -47 77 -47 0 -48 0 -48 60
0 60 0 0 145 0 145 -60 0 -60 0 0 -40 c0 -22 -3 -40 -7 -40 -3 0 -39 18 -79
40 -63 34 -82 40 -134 40 l-60 0 0 -145z"/>
<path d="M1593 377 l-53 -32 0 -112 0 -113 148 0 148 0 50 32 49 33 -137 3
c-130 2 -138 4 -138 22 0 18 7 20 60 20 53 0 68 5 113 35 l52 35 -113 0 c-105
0 -112 1 -112 20 0 19 7 20 91 20 83 0 96 3 135 28 24 15 44 30 44 35 0 4 -64
7 -142 6 -142 -1 -143 -1 -195 -32z"/>
<path d="M1983 373 c-53 -36 -53 -36 -53 -89 l0 -54 140 0 c133 0 140 -1 140
-20 0 -19 -7 -20 -91 -20 -86 0 -93 -2 -137 -33 l-47 -32 149 -3 150 -3 48 33
c48 33 48 33 48 91 l0 57 -135 0 c-128 0 -135 1 -135 20 0 19 7 20 91 20 84 0
93 2 135 30 24 17 44 33 44 35 0 3 -66 5 -147 4 l-148 0 -52 -36z"/>
<path d="M2370 265 l0 -145 65 0 66 0 -3 143 -3 142 -62 3 -63 3 0 -146z"/>
<path d="M2602 375 l-52 -36 0 -54 0 -55 135 0 c128 0 135 -1 135 -20 0 -18
-7 -20 -87 -20 -80 0 -90 -2 -137 -32 l-51 -33 149 -3 149 -3 54 36 53 35 0
55 0 55 -140 0 c-133 0 -140 1 -140 20 0 19 7 20 92 20 85 0 95 2 140 31 26
17 48 33 48 35 0 2 -66 4 -148 4 l-147 0 -53 -35z"/>
</g>
</svg>
